<mxfile host="app.diagrams.net" agent="Mozilla/5.0 (X11; Linux x86_64) AppleWebKit/537.36 (KHTML, like Gecko) Chrome/129.0.0.0 Safari/537.36" version="24.9.1">
  <diagram name="Page-1" id="6J3hi_9WroBRhXeG_nan">
    <mxGraphModel dx="1361" dy="617" grid="1" gridSize="10" guides="1" tooltips="1" connect="1" arrows="1" fold="1" page="1" pageScale="1" pageWidth="827" pageHeight="1169" math="0" shadow="0">
      <root>
        <mxCell id="0" />
        <mxCell id="1" parent="0" />
        <mxCell id="ailHdaVeLgmk8TJC5OJ2-5" value="" style="rounded=1;whiteSpace=wrap;html=1;" parent="1" vertex="1">
          <mxGeometry x="240" y="30" width="190" height="580" as="geometry" />
        </mxCell>
        <mxCell id="ailHdaVeLgmk8TJC5OJ2-1" value="Guest" style="shape=umlActor;verticalLabelPosition=bottom;verticalAlign=top;html=1;outlineConnect=0;" parent="1" vertex="1">
          <mxGeometry x="160" y="110" width="30" height="60" as="geometry" />
        </mxCell>
        <mxCell id="ailHdaVeLgmk8TJC5OJ2-4" value="User" style="shape=umlActor;verticalLabelPosition=bottom;verticalAlign=top;html=1;outlineConnect=0;" parent="1" vertex="1">
          <mxGeometry x="160" y="250" width="30" height="60" as="geometry" />
        </mxCell>
        <mxCell id="ailHdaVeLgmk8TJC5OJ2-6" value="Get Contests&lt;div&gt;Statistic&lt;/div&gt;" style="ellipse;whiteSpace=wrap;html=1;" parent="1" vertex="1">
          <mxGeometry x="290" y="50" width="100" height="50" as="geometry" />
        </mxCell>
        <mxCell id="ailHdaVeLgmk8TJC5OJ2-9" value="" style="endArrow=classic;html=1;rounded=0;entryX=0;entryY=0.5;entryDx=0;entryDy=0;" parent="1" target="ailHdaVeLgmk8TJC5OJ2-6" edge="1">
          <mxGeometry width="50" height="50" relative="1" as="geometry">
            <mxPoint x="190" y="130" as="sourcePoint" />
            <mxPoint x="240" y="80" as="targetPoint" />
          </mxGeometry>
        </mxCell>
        <mxCell id="ailHdaVeLgmk8TJC5OJ2-10" value="" style="endArrow=classic;html=1;rounded=0;entryX=0;entryY=1;entryDx=0;entryDy=0;" parent="1" target="ailHdaVeLgmk8TJC5OJ2-6" edge="1">
          <mxGeometry width="50" height="50" relative="1" as="geometry">
            <mxPoint x="190" y="265" as="sourcePoint" />
            <mxPoint x="270" y="230" as="targetPoint" />
          </mxGeometry>
        </mxCell>
        <mxCell id="ailHdaVeLgmk8TJC5OJ2-12" value="Set Contests&lt;div&gt;Statistic&lt;/div&gt;" style="ellipse;whiteSpace=wrap;html=1;" parent="1" vertex="1">
          <mxGeometry x="285" y="350" width="100" height="50" as="geometry" />
        </mxCell>
        <mxCell id="ailHdaVeLgmk8TJC5OJ2-13" value="" style="endArrow=classic;html=1;rounded=0;entryX=0;entryY=0.5;entryDx=0;entryDy=0;" parent="1" source="ailHdaVeLgmk8TJC5OJ2-4" target="ailHdaVeLgmk8TJC5OJ2-12" edge="1">
          <mxGeometry width="50" height="50" relative="1" as="geometry">
            <mxPoint x="200" y="275" as="sourcePoint" />
            <mxPoint x="315" y="103" as="targetPoint" />
          </mxGeometry>
        </mxCell>
        <mxCell id="ailHdaVeLgmk8TJC5OJ2-19" value="" style="shape=image;verticalLabelPosition=bottom;labelBackgroundColor=default;verticalAlign=top;aspect=fixed;imageAspect=0;image=data:image/webp,UklGRtKFAABXRUJQVlA4WAoAAAAQAAAAHwMAHwMAQUxQSHtZAAAB/0OQbbP9/uQTiIhk9VfDw21ta1vbtvV+ksx2HIeZmXqYoaf3Hu5hZuY4MaOk98f35LP0fbJje66yRkT/JwD+8/9//v/P///5/z///+f///z/n///8/9//v/P//9vT5IHmNUwVw8vH929eD9y9t6Xu6PVsTpLlkJqWH4IROKyijl9VU5Eg88b7dbsg6n71B/HvMFE6GbMlWWoOwwqmFeoRu/HzFkE6/ybjHmHanivMmtQuhfFvET5/keWoPo8iXmK6vuMmA2ovlQwfzHwU/j+lZ4rmM/on/72WXaTmN/4PvDdm49gvuN9zfeu8Q3zHuU983fOdCTnP2Bw5DvXHcA8SPWm4Psmnir5EBiZ/L41+DEvUr2xftuW4/kRGOj4rpkeME8y8fe7Vh3Il8B70zdtJJI38VH1TVuO500E+75n5FjOm4jOfdNu1byJ+Oo37RnzJpPb3zRv/oR88E17z6M4/M9///nvP//9b5388Xh1cnR6dvMS+l8E+eloYaC50u0sLKruHFu7+Pgfg/jNUqsdqEv6t17V/yF4+VMFqZs7t4P/KxA/6CCgqXXsTv6fgPCKEzRvOEzk0ymJeELWIvDTDDqWbsXz42T/w/nB+uLC4tr+xYNPpgvPENDVs52kUpNJNR8tdLMxUmOBz+1Vgxs3AYr4ogQ6V5won0Vero+3V1c2D6+eQvllwdPJYki1cOTM/5lyZAXdWx4RUfk4/dlSAJ866qcOX5N5Y/GrETtoaRu6iiOi+lYDDE5HMHDQYwVqqWXzXc0P8y+XgtaelQ/E+CxhoXD3fsgKKUudF7E8MPVlSALtxR8v6rMLmKwtBU2LViN5X+pdB+gqNF/NETY0d/wM53vdt4LOQnEh8G3/Gc/veu0Gw3evq/lc4RFifFB5l8elrjohDYo/kvlbN3WQFosO87bkSZIehF41X+uiGtJk+T1bqiLLspofNC2kC+ciM8mI//3l+vRg//jqyesPJ9Q8n9dWSJdCL6qx4Mfr07PXF0poFw8+bU80FUrwKXHWDa7d+WNqPs+OJ21Anf/2V2uhAGAq611/iWqiRp+WWiyQslTz6y4s580oiXg0EolEE/IXU5A+HU1m+Jo4J58TqUXvx50EtLV2n4aVPBg1HvJdb/yaGBgamVo5eQnGZMRITxpJlXjWIykk36YdBLQ3dZ7H1TwXOfy02OoUCCEAhBAiVU2c+JJPzWkLwDweoorslAigr2PyTclnkcP7bRYCKRJSsbxWkcbANBz5SnkfMIP+9SfJvBU1etBoAk2JJKQzMP9MfCbf1ojAonsxlqciv/6wQGZqP1P/SZ4VEWDTNhPOS0nsFguQoQr1UUSUj90EWDWNhfJQYgt2yFwtewoqV4UE2DVPxlJTEvFoOPT+7otE4wklDyM2boEMVmhPqK9lBFi2/ZTplETgZLa70m6SJJOrpufnZTih5FnEpy2Q0Tp8kXYR2C7aolGCB32FkigQ+JQIoqlo8DQq51MkF62QJonAiXnnjxlYr7/9Qgls1EgCpCyYG3cjSt6EcuIAIyW6lDfa+RD7HMA8GYh/EjuoEgloSsx1F4l8CX8lMRKh3EY0I5XngU7CBYjAofsvIqreMQsBzYl9JqjmRSRHJDBSy/5puaiR0PWo4nUNH3y2vKNyXiOArqb6JyUPQr1zgJGSkojyMWoVNBAKV4IqIu6WpA37Ah6XEtBZKL+R8x8SPaKhmH7KiPGbXqtAqIhQMP2axH/VtcJ0AY1/ikB/Unwu5zuoNzYwVPc7IqISe5qvt4iCQAgRBNHRvv6eUPFz5W+RNsSABBNhAEjJg5rnkBwXDcX8U/4HUU1EvEcLkwP9Q9OrF75oEmmVo2otCls9xsMqqXvPcwgXESMhVUGklRPxWDQWTyqYqvLUb02F1J68DqQrEPrDeQ3KkRmM1HmmUumoxg5bzBREqFjxKbhF0hWY9pL5DMlp0Ugsv5PIqhy5nG2wEUKIpWrs0JdAxPvatAUV3nyGeCMxEPNYFBlWYiHf883Niy8YlfHfyGz6En7G8hjCDjBO01AYmVdVpAxMpC8ofMtfUF/NxmGZDSHP0Y1qSxoja/G8BeXCZBTEsxlFnh97bATSeb0/f2FfMghT730COVaOqkVI7+KlmrdwYTIEqfUwqCLHsZVCAul+MZavoHrNHFTN1EtUpHj03C8jz/ElB6T/7kC+AkZcHHQFfLfrY21VRW53eePAwulbSEGuk2suyAALvXkLsSrCXj8iJkI+7+vLy9tHMKYg5+q2GzJB8pC3EO8SmBOm0FivaiAzPFO/UPINkhMic84VY/ENkQxhV0lcrY531NdU17YN/DoJ5g/IyxJzFaeGoq5YIUPsH28sdloEAABisnsq+/YieQJ4YmKuzW8o902QKVotkKLkblwO5fTU18O1+dEfw0PtAmvCBBrqgpQxaOpoO0jk6oI7o82VRS6bWTSZJGC9eN9QHpohoxUKZ/y5OPl0rLbQBPx2BQ1lzZLZAFh7H3Ju8klviRl4dq6ikUaGIeOVWq5za+pNX4kAfHf4DOWmPvMBoe0+lxb6UyEA54VbaKjr9gwIxN7X3NlDtwN4F0aixjILGbFpNpYjU87qBeC+8QENNTaUGYFnJzeW2CkH/ksPVGPxdmZI0P6SC0vuFgP/hX8TaKy3DZmSZTEHJh+VAf/u5Sga7EV1pgStzzkv9bIS+C9ei6LRnlVmTPa1nNdbO/BfuxdHw72qNjBSXGEoMBjLcYWmRe5sg9cyGqj/cnft96+F4UIDK99bsRpK7XVuS9l1AOdi018/GufT2mh7dbHTYrZaRONyr6n+QUNx/s1tvbQA35bmhQcZjTJ5OtXkBON3LUQR75uMhMzktBLLEk/W2uH1RxmNUr2erBAgDTp/hRFROas2EBhI5LLuaoDTwoaOofmt6xAaZ2i5ToR06FkK4b/JwyoD6fTlsJJLwGvH8WsIDfVxzAFpsXIrhp8nTxqMo/U1h/XSxk3FAxrrTacI/FsYMHefy/i1ctNjNoqmxxzWrpUbWEsaylWLAPyT6eECvcrn35D+fb7cIBofclfhSeC3591IHpoFMMDCj/B2t0OPopGzOKaaOBnyGELra+7qoYmjwisDCfRKYIBkMo7oXe8t0kisHNkPo5bh3eFKSYOy3gLCVHcwd3Xk4Ag2FMOQ56xghK4HFRHRtzfV4iGpmMq65s9iqHXs7HdvjZNQOCq6544/2gSmBpM5K3UJeJ4MGcaJB4yQTCbwc/Vp92d/S3WRy2ax2gtKa9tHFo79qG/wcuPnSF9nW1tH7/DM31MfojwmsiTMYs4qNM5Vx6tRRNtFQyh/Vb/4N/JysbexsrS0tnl47ZWRSTXse319D8n4qbJpYqlwN3f11s1V+a1RbDjACK2bMhqq+mJjqWjuYGfn6OIpkoO6q+fKcWYQ8SZiBMJoHA02XksYkpxOq81T0Tq2chbMNZ2XciUcGcSpG4yw04dGKy9IDNGWDu94c0unHq5g1yAGTEbQ/IyGq766uQCw9R2Gc0nHBXxtGUO0AvgnrfdowPKoyAdAwcxLDunImQFcuPkz9zyhEatPRbyA2HGl5oyO3XxtG8MfG3fu8QAas/rLzAtAzVnO6KKMr31jGDRxZmn6m0SjDrcRbqDqIld0U8OV+cQY2gSurLWzb2jgNxX8kPqnHNFTK1eFl8ZQBfxKRU1zD2jsu8XcgNQXyQ0FhrmqezCGMsYEm00SRdHs8FS2jO760fD/FnMD9uWcUPx9mqsfH8ZQzphjaH5saGh4amH3NoZpcaOG8ALlbzkf1Xe+MNos8PQrZgyVjJVcYrq9bjXzYpnO9YSP+h0ARORIPERjbCRsld2nHfSOlwp8QNl7Tkd9nXIA71X3BvFDYqsqkH4Qj7uLJS7sS7kc5bYd+B8LGsScla0mNR2hfDxQXWCmEARGxDYlh3PbDPxLB2iQ+y6mTMOYrr2bo01VZcVFRSXlNd3FjECRN3fj7QYDbHkxCl8ZUwXraQsR1eDDxcnp9Uscu1lx7eds4lOiAQirCaPADpGlypd0RulvZMX2O2dzVAYGWP+MhvnXwZDQixnhYw0rpsFcTWwYDFBcTxpHqIYhz25mcF3JitiVqzmvMoLudzRMNT5oZoa0RTODK2aEtlzNgtkA3BdolEnf1e9qkRnPNmaGN1XMtORQkmHf28v948ubP6Iow8C/aSlmELJvt0UCdsUfiQzhpZYVqTtnEvHujTW4RACpsHnq5KaNP2HIj8YYOW0QgOXaW8wQQ82smMdyJLGHKQ8BSsFt505ofkVDVD8mrcB04V/MGHtZsf3JiSi+nwVgsKTuEQ1ReW4RgWn7jJo5zFkYKTjNhcg3TSIYrFh7j4ao3lcJwLR1PIaZ41EpI2WhHIh8XApGK7U8oSGqL9UCMO2YimIGGWhlQ+zE3Id6WARGaxn0oTEGmkRgmRQtJDGjnLMw4drOgdyVg8GKntUoGmNiygQsmxpOMMO8q2WiOpL7CDUKxiLYuh8VNEb1zA7sEql4LoAZ57SZAftvzHmos1Yw1tKDOBplrEFgRrSUTL1gBvrSrB+pD+U+norBYEvuVaNQ9izApmT1dG35VcxINzy6OdeU3MekxWhIy7tRxJsENkwDt2FFxQxVnrHoZe48jik5jlA5GC6ZCRuD+mQDRidlzGBDQ5JOQCytl4ncxr7TeMB8JBuC/NvESutTJoO+fkknAOKcjeQ0Rs0GBA3vhpBoElgpPshoMDhm1QvA3OFTcxgNxIjIWtwIoi5gVVzIbDC+XET0AqnFl7tIlIAhV78ZgPpgYQYmMxxU7nqsRCeQ2oI5iw8PE0QgrMF2kj/lyMzOYDTDQTV22mET9AHziJyr8BayYK4frmOu228A2yZ2egOZDqISfxw06wPOfTVH8caEez04xpz1gT95jaFuX+aDGJ8AnUllJCehqqEiFooPnhqZg80kd8oGQz3+TOi0Qi+w7as5BlWRE96H+7tiFiqvju3sDQf5OzCz0x/JgNRZ0F3qU3IKSuRksr7QYbfbBRaaX/4C+/Ve7tQrhsaUDOi5TT8oDOcQlJepYptJAGb7g9McuJ64w4CdGeE3ZsB7HgbsN2quQPWNus3AsnUx0M8BueMvXkNYKdjOhBYEBqwbuYLkVrkJ2K6+em3nAM74S45JrDTeZUDKODBomlZyA7FpJwHGh5XHJh4OFe7UMwsrI/EMKDzAxGhuINhnBdbLjvC+gYcD/jBaTthwbmIG7OthQRrOCUR6TMC6OCnjQxMPRwag/Dax0fH6bRjKBcTGzcB8yzPicxsPl2iA/lLCgm0V063qO1ufGx8fn/17+qYyE/zBgmkmB5BctwHzlSeI6O3lQLw3AmXFzELPR3qRb2abiwocVrPZbLG7ihqmz2U2kqMsWNbVrJ/6WgzMl+woiBie4KDo2Qgw3CnqV3aE6TS61V5oFYCWWNxNf8Ms4DwLtvPsX3RQYK7yIImIqC5y0PJuCPhYTPSyLibTSPK42SlC6oKjbifJwJaTgcIQZvuUGxswLnRey/jpvpW96bAxKMcFOgmTYTTcpPf6+ODk6k1O7X24QABtSUHPq6rbbYN+Uq+S9YuOEsbKVnwKfn5Tzd6BYgyY3LPrIo760GBfVvpqSjxud6GnpKZ35YVKuWo0gfZS9YmiV3xMP+u2mvV7cQLLUt3yYxy/DowwV/SMBvkxZNLDMulDQ00c9JQ5JPhadJT2HCa/SB6UCqCrZz2pE+4W6kUqw5jtS24SRkyFFU0DSxfeOFJviqwNhwziqM4COhathtBI1dNutwipioVdp5/IB0Wgd8FGUqdAv16WVTXrF+kHRsu3X73+GKZ6X8+YeKoYgrpaAjpKvRdxNNLgbIkIWoolswFE5aQY9HfvJvXBgxJ9hLowZv38RawUnqOWiT+MtfnQCNX1QtBeat/1qWikd91W0Nra84APtcBiya1KEbpcnxvp6+kbnF45/vgs/tOki/scs3+vIiviviZ4U82UdCgbgXpSDJqbB0/eZTTUy2YRtBdbN4YIE9Di++ztb19tSYHNJAqiZHUWVXb8upcR8f2HHpZlOfunXBBWYFObxBJh6UcAjdBXS7SDxSQa61WTAHqKBVZgU/wdQ8Sr0RqXCPTEXta7F0V87NTOPBPB7F9ym52/2uBbN0NFN6oRyJMS6NjwaCxv7QIYY+ED3o+Um0BLsbDrSMbHXqKRbT6IOYDEJm/qSTEz5G8SDVB9KgA9hT8xI4kNm8Aoh2ZqTaC1UDT+it4phyZiWwRzAUmGtjTC+KqVFWi/UA0gOSnqArX3RvK3AAzTagU9zS3HGN5rkzQgnoVkTmCHGXFfKwzPiqwI5fNh/kLFRB9hVTaO1wZIl6R8XU3+1gKgYF7NASgXzHjONUP/pMgIgL3fy5tyagKdu9+MY86aNgA8C5uVoK17MweAbxIrjQ/aoX/awgpIHc+cJX+KehWdG4avDtKp0wMak4qHHECghJXRoA4YXCxkBUjbC1/xLkEvsslR8ul4c/Xv/nX4k1VXWtFRGlSzf5F+wsgG6hrbb2UFhB4fV7FqohfMJzhRr+e768oKXQXF1a0TR3HELiEzAPd19i+5A2xW3OiD6uPPMkZAmgnzFC3RbyLEx+VojRW+lkr7jl6rIEM0jatZP3wrYGM6rBNi7KCWEXDsyzwVge6DPh5Cv6oFSLG01ZYpkIpY9i82xoTnFPV/KGEF6l84ilUQI3rqt0EG67jP/ql3Nhamw/qFJoBZshjjJ96k33iIvbtWApmsdVvN+mF8jIHaW9T/wsEOlD/wkxgRdfsZZ+61BTJby+8cgPpSTfRybiX1C08DyysJbuRNSbd1ZD3URzIc81wOAD+G9TL9jKD+jyVMtbxyo77Y9fKcs5aYliDT+ZX1Cx/MdleAvtKYH/WXt4Fp8yk3GG8XdOp+Y0w5tkOma1nN8vk3fhSD3pZxHzIYHGMLFuLcKPsmfcRVmTF/A2S89vOsXvKw1wW6e+aDyOJzLWN9H9xguIXoUv+AbCe3xMzHHcIs3sdcGegutWzHkMlrC2NVD/yopy49rGsJxqKtJOMRO9Tsnfr4QwK9xdqfz8joMTDuuOIHkz8lHYb8yLb6aoeM136IWTvlug30drXPX8vIqLzJGpxyhKEBQbOWB2Rc3hcyn4LLRLZOvW8C3UvOkd3YInMHPOH7D1Ebqf1WZS2xmAFZWqa2HtWs3EsX6G+aCrMT/c3cLlf4PmbXxLqSROZ+Z0AAYG9ZuJGzb6FRYNG8GmcmtsDcHl8YXaoXNRDr1yOsKX8zIwChbv4225bcsjABxRcKK/Fl5o44Q7zplVIDcP0MsBJ6PN3f2T28WMqUAKBhI5Bde6gGRnt8rCjbrEnn3CUmzVqAZSbEgny/Mdpc4rTa3VW1JHMC6/BdNi36C1iVdpKM4DlhzHPD3aYNtLUtx3VTnxcbJDBKc015GgFoPpKzZ/dlzEDrOyt3BYw1vfD2Vk40gtJTveIHbQQMU2i/2S5MJ1CykciWxZeBXelIYeSthbHxIGfqtASa9/v0ia4UgXEKTZcYW/WkE3D8TWTJ3poZgpEgI9F5xrYVzvzFRDv7ji6xJQcwXu7UQWq7RMT4Rlk6AedGIjt2aWOp5JERPBWZcp6ofKlbFtBxJKhDcssJjHv2FsuIVvaBB/xXPmkypRFw7crZsMQqMH2kMvLWwJSrf/ngLsSR/EPSo+JSh+tyYH06jIcddk3Eqj8B/PJ1rISkDyi5UbNg/iG2fkcZia8RlgDAVD2x/6bwkigneohb2gVHgPXia0T8+NPoSMlUPnyFtMnDnmJBg4LmGsGIoN2rZr9eW9ga8DOCzxWMAYC5c8fPScgBuv6SNTuxsWZZiuG/b4sd5Q7ylaWoceJCwRTjB4O1bomGOCu71wKndkOC2Vj2676UraZXVmLLEnMAloHLBBcvNn1GQ1oFx4FxcSSAX8YuFwZa66urqmsbu2f2fajpy/pIS215scdTVFbd9GPxWkFMNAmGZLtUsl7XDrYqn1jBj3YOACo2IxyoTzoN+LS6K2VM6npDetn/fP/ojaKeybfLw+2dvbPHKH6qHjgMCboCWa8rK1vF98wo524ewPkrxB6+6dT/odUBsG394UX+k12iIQl7yayXha0idjC2bOMBrHNh9sIufYYDGsX+MEWKZwJohHclhgTNgayXja3SB3YwMm3mAWx/4szJVUSX2bhGgVGGhMK2ExmNcclhSOK5kuW6K2Kr5pkhDA7ZeADPjsqaMiLpsoYav/fq5SqwCAAgWtwV3XtxNMrksNmIYDCc5XpuYKvznSWMTDt4gKZ71tRDqx6eU816dBJ+/Z3oaqlv7pvcfkMjDXVLRuR8yXJ99LE1HmQKYwvFAgcwGWMMI+VEh+43rT769bpGg/Z1mgwI9uTsVvQ3W3+TbKFy2WLnoPSINXXRop2wqmoVmtLJ/GZU6OuzGtBIOLuFpyJL5itkPvyn2s4cjMUYw2At0az5EbVOrulDKsOGhZGJQmI4FR9Zrqdqlpre2EMMLtR5rIStqgvW1ONCraybilZqfE/UZzxuXKhu1piNRnzMcoVnWVqM8YCYvJhuLC10OewSK+ICa6j+cmgjjgdQW9l38afDrIv5XDEwRO9YiclY4FjJbuG1gx3XLfIbut75u1BBGIH+EGsoTzo1aX1GbSOHLQLoS+ojaPC3g6U2wUiW41muwDA7UyGO/k3UMVN3wxwqv4sFDaYC2gR+WkFvy65sdIivC01FTov4GTGJnE2Es1x4VcCK+w45DzqAVc8ee4injXaSkjDu1yI8J4LeQkcM0+Lr9lRHdUlxcXFZ43A14WswlO2K/hHYEBejnKk3ZmbMKzxgdK3OJaQA4p94auqWFXQvflTTw6fJWCyhIk4B333BbBd6mwkTbR/IuXLEDvziAjF57E4Fik9Te2wB3Z07MqbfSc66Alkv9baMhdJblbtNEzsznOCdJyWYiqKSiEbCoWAoEo3LiFuSbs6VJKbhCc46s18onxToV3AsI+/yX+Nbc6RWf+a7Wp0c7G5u6vgx9vvw9XUMdBaLNmRMx5OcDYSyX5jc9xB9SMF+ErlXdhia42XSkprJYyeEwKeEEHOhUx/B3nqvYFr+ZeZrIpwFQ/miSBeh+DiJBnBsZkZY4KVbTI1JYjEJAEBEi7NpJ45pes3J1+9YNkx97dWl8k5BA1QfLczYFiLBYCgcTSisNQtcuJZG6ksKCqu7Fm6TKqbrvWK+tpNZsOR1I9Gl6U42AowWMEMsDrurrK5n4SqYUJlq46NcVhRZlmVFxTR+XcuVcI/Zr/hOAQFdiecgbgSJZoGVzwkRxLLfL0mWhs08iO2YCYa6uCr2Zr/iO3bQ3bYeNQD5j8TWp8Q9H1TY2XLx4FjOCHCCq65g1iu57wQGLRtx/tQnGwcAUtOVykykgXBQ+ZEZ/HXxtBrPdqlnLmDSvpfkDhPNAg8AFUcqK3hRwp5zCTPD+waOLI+Y7XpuBEaLrlXulAMrH1B2xIy64mLNPJjIENQxjtoD2a7AODDb9sYdxhsFPqD+jRWUh8yMFd9jprhbxA3ZTGS5lH0TO7AY4049c3AiDSis4F8XY1JPLFPwd3NT8YFZrrd2YNh9wx0mp818QOkZK6/VwLptSskQcL2AE7Iaz3LJ2wJLMBHiDkNNIh/S4D+qIieTyaSsqJoluiXmwL2dKQR6OSl7xyzXaxsw7bzmT32rEbiAai+q8fuFvrry4pqO2eOootGCA9gnVe8ZAu54uJB2k9muUzNbMB/hDtXHSoELz374b73VLAqEENFkLZ5+U7TwVgCPpn4lQ4hPChyQvhBmuSJzwHjtM3+ovLZKPNhaGswCUBJT4a+oBuMWLqBgN0PA53YOTCcJNcv1VMcaOTEAVIMTNg6IKECq1tY3NZX7YuBTaIhlCLhfyh7Y6369yFmtcwtr8DNiAIix8waJOU3Fqic1hTEzJ+BYyxTkVRd7IJhd/fdy9krdAuY7vIaASmi32cQfCDVelSpYDryS6kiGgPHfVvYAQHJNB7JWkVn2Su+NATEZuppvtBJCAAgRigeaLTyA2Bmj+uvgBhzbmQJG5iw8AJjrLuUs1Xsfe9KlUSAqseD7zc7qysL6yaMv9sfJBVhWZQq1ReBHbFMR1XBcpVO9x6sLf1YPvXI6wciCkwsQ3CvR7NRrO3twZBz/qslEPJ6QEXHLwwcp8VG8FwHH7qur+SZPUcPcs/rF2++GQqfNarU53HXzb0r6wPhGERcA1rFAVuq5iYMtxVBoz8v5AGk5+dWugyehoMAqAAiWopnIP/6pYiuBL4nVM/mePjDxOGHlAkwDvmzUQy0H67JB+Zo4IdUxRMX78prAcTNPtNauIKonNRZI0Vx1mEwbiJGDei5AGvLnBv4mDQoHCR9guT8frCryeMp/eIgxgHk4tlpEIGXiWo2lD5S9KxU8gOlXJPv00srBhmxUm4WckDK3Cf6VCBiltd8FmjpWY+kDMf6y3iSxB/btZNbpvY+DAzTqYCsnhmwCjV0HShpBTHxc/mpxsAZld1mn4Bh75NywcNmZMWhfff9F8Ob48PjSKxsbohr9eDpbmxlqZgnGAtmmxDJ77lvjCnZlPDATRlTv55rLiwrdhZ7SuuGDsKH9q8Yjb3NM2Q7VLBMeS8w1vhgXXtdkPJ4rPO8tsRH40uRuWAwYHCK+1jAF/R/ZpvsK5saDBqZuF2U6MDxaKkKK9pYD1eCS24Qt63G2yTfA3LZiYJhYKch0bGZInRT9iRubrxcYnwhmmZRtwljRHRp6bKMkw9HYORM2tFsna5X3WSZ8rGFsJGBsGD9vF1Nzd3gyHLDNJgxM3gLWhb1sU+wXW9KRanCoeFdrCJ194PxpNNOBgjUDC44zBzPhLBPelDLV7Ufjjz9tDpQKn9kafl74EU/dmQ5UnxvXWwt7nW/ZpvgSU63zfw/uogaHKPvujjf+zEz93rp8jiAiRuYyHmEgYVgPJexV3Gab8KWFJaujoLiyaXDtWTW0f5VYOBxT8cvXrkwHig8M69rKnu0s6yQfuRn6XCioGdyPGlyq6k2jRrUmwyD2L+y8kB+yUV0A++Qo64TxZTNrACAWd+/F0ggqV61akN7rSWIQpOL4V1d9ZWPfyp6VE6i8NapTDmAv+4ShSQ4AiGfwRk0fqDyMWlJyzL2hb4AYg2UaY28Pt4/vcqJZ4MS5nEFsZaHwfZhwACBWr4TTB2Jgq81EZek9iCCid9JGUWfix3WFX8pbIifCoFGd87CdjcKPKRMPAK6xtzSCyvP2SK3tE2fDxIEXPw3u9Xn+sTT8uW0ReSE18a8wUEX4gDbZoK4kDg6yUhj46eACzN13aQQRA7eHm8t/lreP70NI+X62ufB79eA+gbsOXqwLSKlsmzhpDKP/bP3n+Ojo+K+/5wHjuCtgTzzOTmFku4ULEJsu0sqnsoqpK0n8N9oocFLho8HoMOGjdGGytcJtJgDEUlDZNrYbMojnWvbcl1kqVO8nCnkAaLhMO7ruOvmw/ER6bysfpgIRqElx90rAEHz97DU8ZqsQw4ejRTyQlrsMItEr8UCq31PAuzYutHT0HMgGEF9ib8CXvUIMHf/s9DAHQs9r5oA3pTw4NjHl+0GTIQCUzoX4wzOJuaVENgtRft1rIayBeTqaOajLdvZMA/HU0LdUk4LQ0uvgAixDL/y91rFmP8PsFqK/gT0o3MocMDpkYo3UPKGWytV8s+OrgvaFx7sKPkDoeuUu+pu1ttdsV2KOAIeN95kDvrYIjBUfoMbyw/bPwc7Wtq7hX3svKsrNnADp9fGG1y7GlhNZLuXWBTxK08nMAa/qBabc66pW/4beHp+9Efx01soJiKNx3kJjbJXfYZYrOgx8VpxnEHhZJzBkmVCR1acqXsCyoXKmXhYwNR/Ncqm3Dk6EsXgG8dwsMmTuPlNZwWkLL6TsWeULI7MsVd1jlis6CbxWnmcOx+0WYLpyS2blrZVwAsKozBm+1LNj+pvIdnmLuDHNZQyHFcB60Q4reFLOCxQ8qZzJh25mfvgwy5XcBX7b3jOExxpgv+qZFXW7jBdxOskZxhasjNTfY7Yr3M+RZzszkAdNHJhGWUF1r1bgg5SEeMPwlImJ0hMl6/VRzJEwlRncFQGPpT5WEC8HnFyAdKHwhsFxKwMl2wnMdqlXAkfQHckI5m1cOPfYweDfLg8P4mySOwzPuHQr20li1iuxBjzX3qQ3JRpJIGKXqIG72EojuT0mDazzDCEGdsbaq4pcNovFRNgRWuP8YWylWh9Sf5jE7FdkjCvPdhrznm/8mZqcW9q7rQANxw/+jPR0tDY1Nrd3Dcxuzbs1ME8whYj+i52/C7///HCwQ0qiBoDhIV3EvgcVs2CBNq5si2nraaO3BD611lo0IFuImAh9vDx7A1FEPNPCMs3al4cedsAaMAD/fIEu0nIcs2G+Kq6E6TQV2W0TQVfLLqZ4XqKBfY2TdRtDJq/K3ceYAPoWLEWzYe8ermAoPb3/dIDORaep3DdqUPjAyaqZpVfu/GME9LYvx7JgXgdfP9R09DZIQO+251T8g6mJ7TInK6Y0Ep4loL9zK5kFs2dc/n4Cegu/46nIm46UbL8SnPy1MmTxI9+JDQuwWHahZL8cfPUjKolYPKGmkdiMALo33GPKoRlTKqbWhaswFztuhgqjfKk3pcBmlzfr9V7AV8vFwfri74WljcPLp4CSFpR9C+ju2lFSw/cBcwoAUDRzL3NwVsEOaYzxFRwCRslKPNvlq+DL7IAvXQ2jm7eBNOCrJrq5FyOo5fuwPSWAqt0oe89t7IgTCa6UYzMrUHGX7Qo085Vq0djRh2pw8oYAOltrtuKo7XWlBmBfijAXG2XHdIpc+3uA3YVYlis8YCQAlr7joLFFm4guttKG6ScVtX0fAE3NCzHWcNXEzv7diz/Bz4WFoerHLFd80VgAbBOPioGpLxbQteU4ilpH50Fj25bC2lUtM8Re0jC4evEa5yPyE1jeVbNbyikxGCDVRzHjkrdFfRqfUfPjIq2g+Im12AQzn0vNy7cRHl7rmBoNZLfwzWE0AM6VsGElZgR9nJea+YdAc7E/wRgeFbMFAJ6f9wn2ri1MVT9muYIdxgOWubDxyPGkghj/oRM51uy4UDuw36qMRSYIawDlf32syZvAtOU8yxVfMSAwz0WMRA2/3Z1tr27sXzw9tRB9YF+r+DzoKI3IjOFVDXsgDD8obIVn2YJtNbuFjzYDAstSwjDkj9PJejN8WtTqBj5eO/UgxRHW1HUHewB1FzJT/gHG/sSyXOFeIwLnoWoMamC/XQSGj7S6KNUDrNcqYxieMXEAFacyS952xqZCWS750GREpNxrCPL9kAgs2y+02rfqYl5VWMP3YRMHUHqhMPTWzNhoIMuFoSYjAmkwYQDJowpgu/peq23QVZqWmcP3YTMH0PiosvPayNiIP9slH5qNCGxn6idKPOR/f/e+fwQiSV1UOZmUU0nuFwHjw36tNnQa4gD9Uw4OYNDHjreNsYlgtgvDncSIxLY4ohL2ni8NtlSWFpfWdE5uPfhi2sSD70/n+1vbx7dv/qjylXLkBsbJpqLVlvFgfLPCxB5ZTzDj62NsLpL1Uu8LjAis5wn/2UgxAVqp/vdDWE1FDt2v9hSL8Km9YfrEF//srh5Yr3lErfdM+kxwgfgyXGhiDSrumQlNMLYmZ70wsWg2IrF7p1GA1O2D11GVRgkd9diAXqxcfIsjYmAUWCdLMc3OinQxLSt8oHI/UmI3EaZgNsJKYo2xI8x+YaRHNCAgoLFt6kX+Kn7eYQINS5YDCh5bmWt+Qc2fWnWxnqmcIGJge7DKbWOp+I4VPCdMeW6zYfheTQxIx+rj+CdqYM4J2kqtN28DwHrBiapdZEqXwjByrfh+sgTLcVaeK5nq8mbFlNtSkkbAsRJGRPWlSwLNywbsrFk3EqjjgU0H8YfMFwaGmWp8ZSU4xtRSPCuGylUxSSMgzQdRfWgkoCMBtoljLYZ6vnbqYD9TOXssZ8p8yYp6IjLkvMLsGCoXpUIaAXE+/NQIximV7SdQV3mFaCa0JZHzM4EpWEkwgt5mhob82TJUHuukNAKmX22iYUiOwRcVdX7u0Mx9o3KW/AtsD/pZSW4JzJhPMGuGqq/HmkZAIMC5YDZJoiiZrcXDd0nU/7qGaGP5rSDnkVnGml5Zwfc2VsiwP4uGGF8qENMH/xWrc4PdvaNL52FFRQbVq3pBC1L2LvPmH2Ss+J4Z5dTGSMMjZtVQvu20CRkSaQwqsizLioqsvg2ZSWogVOzEOPvoZcx6zQxGfglMlN5hlg3VxHGzTSIZUUsYWY/tlGgAxDISVLnydjFmumIHP7oFBiw7yawbopK4myq1ShlQf5Q59bpWCwCp+UPl6b2HMfGCIfWpTj/xdwSzcIiqHH+csmY+c3HmbmpBY7HZz5NvgDHpkhk14V2q1k2YCGB2DhGVEVPGIxzJrD23g+bSjxhHoSnGXLesJB+HnRLRS5wMYPbOXwwZr/0DGY/Mg46WVZmfxDJj5Y9sqL5Zlwh6E+tCCLN36qYt4yG9UdZOnHqAx6tygyeMtb4xIV81iKC7UHkUx2zeqCnjkU5kxgKjoKs4keDnzsPWVIiF5H4RAb0F5/S7glm9OiHTIc1hZPzMrQ8U+Pn56GVrW2Egse0EnYnonniKI6dZI6UEMl3LhcKYvAQ6S+syN8m/TLluUX/lwAU6W7o3fXEVs3xyYaYjzsaQ8Y9+vYTeODd4V8RSv4+BmwrQ23GbQI6zRslMR+gKIuu31XqBJ8JPaJKlXUU/bx/oLgxHcwBKDclohBavytx5oW7mN5UbvC5gp+EFdU/+FfUDy5mS/VO7xExG7PtQkflDi27SpcJPeJYZspXU76EOWOwL5wD+WDIX4lgOIof7gn6HMj/4WMNK+SPqnlgGJq33atYPH10ZQ9lCcQqW4fs48nho0u9I4UjetzIi1u3F9XpuZYP8jGX/5GYhQxC7k6/rHfYvTLW/7sMqcnls1++cJ4wuEDZAsPe/6HRoYgMagtk/PHRkCI4lxETw7WLt9+z8yuGLP6Yip1elupleVZ4wMMUIgFR5JOsR+wmMWl5yAIlOMTMof8V/lUQsGo3LyPFLu24FYeT7Y5wwAsS9FtPhrYsVcihn//C5gmhUP1OVTizj6icGGJ7US2iPc4b+nxIjAPbFqHY3FazAcjwHoJ64NSFdt/HT2jRS+YKGuSPpJK4mecPwVhErYF+Na3bqYGYimgPA5FEJ0QDaH1C57xHShWsVjfOxUSfnm8odJm/7JUagYE/R6kBgZjCcC0D51K2FuWIthr4Fjw5ifadxmPrjBpJY0EcYjqMRvrSyAuVXWu1CbsX3w6QFgGPSj7GrQZtGpGLt/dplGLUvaKR3tbq4HlQjkA/tzMCPd96GcgLedhNobB7yoho8HSnQQKxffoljbM4oys7QUJNrog7i7yQa4XsVsGv6K2uzz85UNAfg65BAc9N4AFEJ3q11F1KZaqaO3uKIiK91jJRMlOlTvK8YS3zVqZ3QEUAjjM4LDEHdvTbHNmZWE9m/5IAJdLT+TiAiJj4eTlan+jvbOnpHf+1cv4RU/FQ5dTJhWgkfVuhRfpREIw2tNhWKmpGaZzTEJzewTBYSmlyVMnOqZP9WHKBr8eE//ybC/nfv+0cgKiNtfEViYTyAyatWQSuh9VJGA00etDhBe1J/i4YY/QVsN9xr8tbOiv0Vs34fFUQfGAh8oXX4j6jfsBcR1defbm0K5t5UNFDftIeA9kLfo2oM3lLGxI1UlJedn8PtblbaQtm/GTPoXLCjE4Z+mfQaesNPI+cjrtScw+dhNNLHHgvoaFt5R2OUDwhjMOin8v/triy0SQKwuhTP+vlLQfeBoE4YXivQxTrzrn6GGLj42WCmMdf/vAigod61iaCndQsNMjQCrFdcUoRWGl0EWHY+qdk+dcOqX+mRXhg/btShfD2M1JHn07WJnua6+qbuiZXTpwga62O7ALqSyjuD8JYzJ259ddXjBMZHo5j16xT1Iz91Q/Xxl0cj+9hVAlOWg97nx8dnbzCJRvsxKILOpDVkDDcic/Az8Ym8Wy0A4/ZbNesXKwIGe4O6IcYupso0cA8eBDGNJhYsoLvpl2IEyR1gf8D3j7xZDMzPxjDrd+9goeGOAcTQ9XJPMZW77deZD9PqaRkwWPSmGkB0noPWp392S4D5ei9m/dQDGwtlx0wgJr2X279Gu1pbWjqH5jbOnmOYXoPDwKK0qBhAaISDmmtEvKwF5t2nSg5g3cqCZ5eRf+OBt6enp1d/DNPvfiETpDpqAP5eDsrOEX39hDnHZhJzAKsWFgq2GErj0TFg03Ko8Ofr5KD4FHHFDqw7VxOYC9iwslC4kwldVjMidCbTUukZvrYB68WbccwJHNhYKDvOhFZMjIDznb9ALwcVl7hqZ4x0HMmYE8BHBwv1txlQfBRYlbYV7kIjHDTcx/uB7bLfz8h/tihWxEJvIAN6aWdGHE1yF53noNN7W8sSqZk9S2DOQO0UGZjBDPiimhmhMc5dcoeDsdhmAStiQf3wynUCDTFrtGHVz7OXCe0XMQOFMe7wRmRvCX+KDFhGpmf+/N2/CaJRZovQV6pfty8T2nKxYw3z5y1jznGIo8Cg8zQpo6FmjdQZk17OdcyENxzsmP38hYaZa33FQRbsW2iwWSN8qyA6le/KmdCmM53IB4S1ppXNOhZsa7kKXLfpZGuYPIpkPruF7FjC/OFbGWsWl8uU04mPSPoAQMnYRTLTOa1gpzBmALFfrLHq2MlZ4HuPoBeQyiV/hvPQzAxpiBsAPhYakusid4HPvZJeALbhx8wmPMCMOJI0gti8IXl8OQx8G7XrBmLHXUaDvwkr0rZiBPhWbUCkXs1lYGi5TtALhLaHjOaklBWHVzWE5J7deCwzmNNAvJ6qN+kEYu975qKGjuoZEdqTaIyxKdFwCu9yHajuufUCy3Q8M1HejhaHW1yMmPcVg0B/n2gwYqeS88A/dt3As5uJxG+XutzALKkLo1HG/koG4z7FnMdDOTDY5ss4lMc/NQIwbN1TDEK9m68kxiINKbmPETMLjsVMI7TdJALLQk8cjTG60wgGSxpeMOfxXg5MtgQyi9cpB7Bd8YTG6J1zgdGWH2PuY8nORuFWRnHfJQLbnl00RPX+Bxhu6SbmQNoENoSBTOK2mQDbBUuqIShXbWC0pHoLcyCBUmC03pc5PLYQYLtoQUEjVK4awGhtnWeYCzlxs1J6nDH4ukVgWqheR0NU71rAYG31v/2YE1m2s+JczhQSkxZg2tl1hcb41gPcC6WNRZbPiL2kZf4JDTvbNGNlxTyZKex5gGVHw1IYjTE0Dfw7VsJ70z1N9XUNLX2/TsJo4NmmYRMrwmCGEGgGZom1pGXBiwaZ3DYbQMUJImIyFAgraPDZpn5moDdDWHAwQ4rnTmJomPc1YICdvn/SYrZpxMxMX2YQaABmxS4VjTMyAwZo+o05mkkLK8JgZvC3gB0ovDaQc5cRNNzlahbtrJinMgK1mzBkmTCOwCgYoHURczXHBay4VjAeCQXDkYSazp4qgeUa2TAunAYg9H/kbLwlrLh/nazMjo9O/Vw/ffqIpa31AqY8D0YRnQf+hZZbzNmozYQRQYSvXe0Lt34lPY2bmXL8NYrHGv7EpgvM3eAfOyOpWntP/Go6agemLZNGcUC4s/XcYy7nsZQLAFPPdTT9xOvYknoNIjwDfBNb5WIYczrYL/EB4FoIpB1fNVuk0SCem7myFNb/fsd0m326KeEFxJ5XNS2o8bD//e319dV7XsYW1BrElYurzlsZ02/2CUfNvIBQ/6Qanhr13a4ON5Y4LGaLu8SUlg6A6+Eg5oJ8jYQXEGpfDE4J3cxWCsArqTOGxBJf7c85ITwq5QaEZr+RqeHTHjNwLLYbQ2iKr/rb3BAuuLkBaThmXImHfhNwbR41Bt8gX9VXOSL1dwE3YNlRjCr8102Ab9uCMXi7+Kq4yBGhulBEeCFlPmNSP/ol4L3gzBheO/iqusoVIZ7VSZyANJc0IuWlQQTuy8LG8NbJV/1t7gjfhgtEPqDww4DU5xoBuJe60SC6+Gp/ziGhetnpNBEeTEuy8XzUC8C/a8cgfAN8DQVySagqj3OVdotJEgVREhgidTHDCXeLYIDVUYMITfL1M5lTQlSVxOvu7GBna+dgDWEHLI8qL6ryr5pa4o8EBmibR4OM/+FrHXNM/yqKLCdleQwYllblzxQ5mUwmZUVlQUnEov67k6PDo8unQDSeVGmUazsYYU3AKHCPK9dhLurzjy6WhL4EopyIeS+2l3/9Wto880YSsqqLkvAdzbQWmqVPTdaKnj+30aT6RbiVGIFrHQ3zwsFTzXXu6qKaJVIdSbxv9pVaTJIoiqJkMhV1r7zEFa1UObDfUyCJAlASQTSXTNzElX/kHRMYoNSdMI7HOp76P3JXe8UsgW2n1yEJBGgFydqyHVQ0Uby/yyUBNCSitXE3piCG64gR1LyicQYneFpQc1cbLqbAJICGglTxN6impAYWikUCWhNL/UFCPpbAAEtP0Eh3OXIdYe5qycKW1kRqOE2kkDysEwnoSWz99z+IARTvqYZyV85P91sOa9FsBADEMeenCsw4CegtuSzAf8megoYamuZnRc1hrdiMAUDsfaZ46BQhHQo15woaqaqoJxZeqm8wh7XuNAoQmu6+uGggkA6t/e8KGqcih67/znTaePmdyGXtFRsGkOb7T46rCaRBqe4grqJRqvLLYluBzWISCSfV15jLuqkzDiDdL4h4XgfGT8x160EZDTN23OUyi8AxWUrmtHxdBgLCVAjvW8DAyafmyonzcBINM3HcYhOB7+5XzGmpk0YCtu3ggGBgJX19P0b/7D2GYgoa5/OgQwDOPSeY28Itt5FAY7sdDHwwFIlE47KKBqrsV0vAu7SSyHU9txiKKIKRD8totNE/LgLcTwYx16XOCUZi8KOK0YRmrMD/kBdzXnhVmzFNoMFGZizAf98L5sCUOSFDIvMGk/htA/4HXtRcGD42Z0iOvwazXQjcS9PvKubEcKcoMyo9NJareuDesx7CNJ9Fi89JGVHDnaFERghvQvdVAnNmGBgVMqGhuKFsuYHzqi2fijk0/BgimY9lBY000At816w+JzEDzKrhx4Ql46m+MJTtQp4cvbsvccwIs2sYWnJnOiMxI0kOA6/OurHtO5+MGWKWDWMnHWJGU7SPRnpTy5rQOTc382t56/z+NShj5phtQ+V9vZZkMINhQ1l1MDfsj4SjcRkzzKwbYuJ5p9eZQmlXQaZQfICGOgask9o4ZqJZOET543p7oqWiwGyxF1R1z+w+3DVkCOJMzFCCncyB7T1fABGV4OvDzeXl1c3je1jFcF+G0PmKhvrQwJ50puQPpBqZyAwqTtAIE9HkF6cVHGzK+QrxtYygeCvJmfy4OdPX1tzU3NY3tXGfxIMS9sSFZL6CeiNmAIVrceT6ZbGrutACn5vdVZ1LU24OJhP5CvhRlv48qzHk+XGq3gGpOgsk9oSJ/IXwcNqr3okhx+E/9WYwRHE2f0E+EdOb1HuZRI6v++xgkOLvZN4C+uvSWvXyO/K8Xy+AYazlMSTW0ljB1E0Ced4sB+OUzpT8BXyrSF+eS+R6twQM1PqBeQzJLSltCevKJ76L7aXfCyu710GmriqJgZCKWD4DhrrTFvS9I/p3xtuqPHaL1VFU0zl9FGbG10LAQIXhRF6DclOatlznob9dHgKUYmn/boQNdUoCI5WOlLwGlLed6Qq6f7ggZc/YXSrq+9X+5t/17eP7EIV65QYjJaVBzG/AxB9TuhJBS7HpQKVQ7lZH22tKCpyuwvKG3tm9j8+SXYKhCJPJfAeMzFgZEDvLDUjrsm3ls8TpZIMdaElR1+IzIqpXDjBU172a94CRPy7dzENvv+3pAkp2/1HvJysgdXPbWhiVQdFQhLEk5j9gYrVcp4IZH742pQ2oukCMbTUKoKlj6C7gAUP1PKv5ECgf9Zh0EBo3Ioi44kwbQqc/9MsDmjdOSIZiWlQwLwLx/VcN0apk4l5FRAz0EfZIpZkLcIzOWEFHCYyU9IUxXwKVy9l6SQNSMXoYw8/PKtmz7VQLXIDJCumy+gnzJxDx9ndftY3KVNY5e5bAr5VVF2vCeHRQ5CN9lh9hfgVi6GJ5vK+1trKiura5Z+TP8QfSR6YsjLX6lG1zRlO2h3kX/0bers9OL6+fQ6ihd9DEVM2Nin5PJlO1h/kZ+r78MDFUcYKIyriYsUjtx5iHgs8DFmZqDhER1adSkqG4x18xLwXfJ51siK1n+Km6ZE1rhGjl6FhPYJ4KhpcrCAOuoWf8MjospTNbS5eHaOBuXfrAjDeHg+pZt0MvU8NKDCkDfaY0VnYc2R6s85hoJHfd4IYXM+BcDqJ/sd6qh1Q9+YD0H6PO9NX4iCg/7Ux3t9RXlVdW1zX3Tq0/qJgR53YQn+YaHFo56yeuMOX4Yr05XfVG8VMl8HJ9dnHz6MPMOdeD+LbYVWFPzVHVs/SMmj5ONXqkf0RHcXWzPX2YfmHmnvtBTFz+7muo8NjNkiBKFmdRRVP/4o2Mmnu3x7qamzpGFvbvIp0kbVSc5vX867/c+jM9OjQyNr20ex1E3aNBFf+dtaaNH6G8H14Pi9JFwQbmaYWa0kWvP18LZ63pwbODeVtPtWlBmo7nb+EvWzroeMI8rmC3YHzVp5jPhRe1hDenqFf5AeZ34V4FZ6bFdosuQsUe5nvhTpWgjWg3sdEQCg+5dDA1n2P+F561mLUwtfxpZ8K8k8TEUqWkkeAaesF8MHyfLJZSkYrGvLhvY4B0RhARH/s8kgaCvXEvgflhqF4NlNjFrwRbcd8lIgYmBP0KH9R/UD3/UWIXqIi5oHktiN/C/ABEfF7qKPMUuFwFhWXtC8/46XOLbva/Sfz6cbGtxO2wWswmi93lqRs7jeM3MW8AEWNPJ/sHp48RpLyqIPpYZhNI77tYn50YGZpa3n+R8fuYT6Clcloh6GEdieF3OL8B8aZO0s45E8P/AcCXHzaNTCWbMv5PAEbXyywkNdH141XF/xFA1ferzCZRCeaC7hMZv815EIhqaLuvyGE1m0yS2WIraJh9UPAbnReBqCqR2625ieGh6ZWjd0XFb3WexL+qqiiKqqr43c6j+Lb/57///Pf/mHnLn0jufdMe8ycSm9+0azVvIr78TdtL5k1Epr5nsBDPmwh2f9MGwnkT7+XftHJ/3sSd+E2T7tU8ifgafNf/xPIk/O3ftjp/nsSd5dsmnch5EZEZ+L73hPIiHt3fOMuxnAcRnoTvfLM//0E5t3/rpMVY3sN7C3zvC86VPIfwpPjNg9rH/Ib4ig2++6TtLZ8hsVkA33+x/SV/IbHugWyg0HKj5imEfrohO0iqthJ5CQ99dsgaekae8g9CSzUiZBFNtfOv+QWh9XYnZBlt9ZMnkXyBxNV8mxuykKayton1s2d/JJbDjwRezjenO6uskK0UCyoaWjs6c/jtrQ2VhSb4z///+f8////n///8/5///893sbSWtoD8D0L5LdL+sf4PQoeXaq/4P//957///Pef//6vA/Ilc4TSMMiXhkC+zLAIIUT4lxBC+COfskC+zk4QQRQtnsq6ppbmxtrKYpskigJhgAiCKFkKyuuamlpbm5saKj02SRQFwhERRFGyFlXVNjW3NtdUuM2SKArQ+84HEUTR5C6rbmxtaqyucJlEUSAZDxEEUTI5S2tbO7v7BwYG+rs7mqoKLaIoENYIEQRRFCWTo7Ckqrq6urqixO0wS6IoaEIEUTQ7PWXVdS2tTQ3VlaVFBQ6zJIqCQLIFRHA0zuzd+SOR6KeRSOj9dme2wyMQXYhgrhlZOXkJhiPRLyPh8PvV5kybSyQ8EEHytE9tXr2FwpHov5FIOPB8vr04eZLggIiWusmtq49wJBKNRqORSPj9enuiwS4SPQSJVhR0EkRJQ0EvIkqUoqABEURTafvY0uFjIByJRmOxWDwej8Vi0UjYd7c91WgXCCtEEERbRdvI762TG28wHI58GQ4HX2+OZwtSIYJU0vv74N4XDkci0X8jkUg4HA6+XO0vjjSZswLE1rX3EY3LKtKrciLqP+vVQbB1bXnD8aSiYqpKMh4NnI16BNaIuenXdSgaTypIrypyIi4jc4K1a+c9Ek8qSK3I8cjHdrdD0Kx4Ixz8OuSd0Udc8wU1XHbrVH8fCn79vpAScbXO7r+Fo/GkrKKGqhyPenc67UQ/IkjFXXPbd4FwNJ6QFQVTVRXFV5eCWDV/F4olZBVTVxU5EX8fyQYUTD9FZdT80KIVcc28RpOooxL3/60QWBKKpu/DCQWZZEEonH+OyqhxMvoy6yYaVZ4h9bGgiyuAWr7X6mOdRVr1PBVS9BSJy6izHHsYd+kkVEztPIWi8aSKOvrphMb9YEJFPaNT3z/zyENcRR2PJY1MAy8xFfVO+uYLmBEK/3zEVWRVP+KcfourqKMafxuxaeNYp7st0YM0xzTBDn2KdqniKynVxpBFNX7TJeriOo0lVdT7tZqmYMEvo87hkW9f6W5YRV0PQFNSsBlRkcXEaR0j5pHXODKsm9h4E0PdYwcVRAuYpntr10OYTmgzadal5pEq+CMVKIwygagGfzn0cD8hg7cVFBX7SdQ91Pfda7+VUedtTUjRaQIZVR7aWCBFOxFkWi/rhF9BBuX7RkGLngBVaFIPaU/WZsOtS1uCyluSktnHCGJ81a3HMwtnpV+VHyqof7D9m9f9pKLOypomhRcyMqs+teonVN8l0UAcCzFkU31rFTSovaaSN/Qwv6naXFfoIY4g9ZWQkulGYQUTiza+9ou+sP+VkcFAw/eu61lFvRMLWti2ZWR5p1gvoe5JRQNxrcWR2cc6DQo2qfBM0o6URVDbcKMezmWq+DKkLO3IzGBkkq8N9xejQWTRV/mtq75VUffoTw3MU3FkOjEh6EMqn1Q0EPt8Ahk+KU0NZujuy7QTeuMaYZ8e5WdUgb7UxN9JdvCuiasl52fFJ8jkR9F3znmsYKr+4z8jXS3NzW3d/dPL+48xxNBkaqQmiKkmX45W5mcnRkbGZ+YWd++jqeBDkz6FZyqmHLs/WP3zc2picGx8ZmHz+DnOkHkohqmGThdGu1uaW7oGxhdPw6mos7bU+sJU3i7txMWkVj9tOjR+UL2VpCYMJ76K+p5vzg72dzZ29o/On8KqBuqKiZnY09H22uLPuZ8Ly+ubB7c+GXHO9tlwIIXk69Hqr+nx0cHBkfGp+ZWds+foP++O79yvKNLLJ32lLptZFARBEE0Wu6uwrH1xqy01+z7Sy4c/yj0uu9VqMZvNFqvNWVjSsR2lwyWbHvYlGVN8W+4oK3TZbVaL2WQ2W2wOl6e0fTHACGnwIX3yoK+kwGaWBEEQTWZbQWn/WZIKAy2p1d9ShWe0M10oWu0V6dCD1FdCaqT85Opo/fdYb1NFSZHHXeByOh1Op6ugsLiyb+1FSQEfW9gI/e0oLXQ57Tar1WqzOxwud1FZY3cR+UTYROrAckOhy261mM0mk9lssdqdBZ6Smu7JhTHhG1f/gvQPP9wSpCzanOaUpK4E3Wu3W4KURUfnA91buw5iWxTpveMldhFSF63TQTY8R0itXLYVSJCiyf3jjQrXClIq3KZStrWzB5A2LNM8VmtnnqWKL4OGoruwwGEzSwRSlxxFfbcqnfKbiWSvU4TUiUjg0/IrqsceKwEtRYvNAt93sivTHdVLwKbzFGnVlzoJNBUb7qlwzaGd5xKplaNqC2jc/MKEZUymSiwWiaChqeZWpQm1piTMUeGlRStSF6NQh8ob3ygSrdp5tqgCfVroLJVuJqjwqJCFuBt07X6jCU8KkIVsekfqs1oCbIqtCapwmwgak753Km+HZqZBhUo5KCKgdcMzExVPSBufd4C2pPqZBv/YU4EfMarHSq3EsQSFtwhgX/4KhwTNqm+pXkuYA3DvqFTPbUw49ZkK05xXQjZyO0n10UmAUcc20sqLFtBcWkvS4KJJK88V0qoPJaA9G9ZJpE1u2UFrMhCkuatOqfGB6qNXK2lLpth3AsxGKBYdmrVFqS4IB9BwSxUeZ8Klz6JCsyplI8pfkXrOCqyWh6l8JUQ7qHuguqnXSOyRqaLthLOKJxr1qRi0Nx8rFGpfSkW7VNF5rUxPKsW0BaDdR3FcqhUZRtrYAvBI/sg0uMzfJtL+hGzkVITqoRZYNY8grbxqAh3JX4VGntaoYAtp5UML8CUNIG1kBPQcCFDgH3sq0jyVuqdVUQQpmwWAwhcKb71WjkUqXycX0P1GtS3xRnZp5MlshHipUs3bmHGdUMUbiB7Q+06Du25tKoJU0TbCmWePRr236+J6pDkrTwUGEjR4bddG6EhQhIoBgFxSqF1alZ9QPbn4qDinOnLxJu3TJMazEZXvSBttA2bLozTqkw10dZ9TvbRrYhpAWvXJCpw1RGhiP0HfXZnC15xS0zPVS5020nyS4sIFALAW/wqnzBo1f9AoB8CneZPqrIQ38wGNMpWNGA1TXZQzI/Uirbwu6QN/VRplRhPXBlViWeDMNIK0/kqd5iIU2JtSyT5VYEgb07FCsWD9ZzhIsVmoUT/Shqc4gSWqywrexH0a/JON2ElSLTiYsS9TJQYEncaCNLjj0qL0kSraTTgr3KJR7ySdfvhpJqVUTPNU8RVtbD6k7JH+qfVS3FZpY/1F5W3g5RfVdTVvsE21W5B9MD0idT9hpvCOKlZOdGp+pLqp16Jepgp5gLPqV5rEOuhc/0az5EgF+pM0eEa0IFVxikQ5/Gt9oIi2alNyQHVr4WVWprmp4W6N6r07+1D2QRVrBmbL41Q+K+hcdEEV6NdAGkRa9VnirU2liUzoVfREs1OUUuMT1UORFuJgkuKx4BM4UL7CIaJJ4wtNYh14nYwbymSYBrfdWYfuINVzNTNCK9IqVya9xH0qnNfA/odKPhI4M40hbbBLL+cDzVlFSsV7VO/tWpjWZIoN+2fzEYpFhyZ9Mk1gkJuJmKG0PVNF563Zhrko1VkZM+YxKnld0gtWVaoNS2ruXarEEm8Fq1S+ar2s9zQ31SlJc1ThGS3Md+pX6ojpsy4fxUmZFqY5pH0uywycR1QYnLVnGTYTVLtFzDhWqJI/Rd1+xqmOilIruaGKTRLOSk+pvC69xDuah7qUoC9Bo+xq4Q4jRS35rPiZwtuoRdEO1ZmQGcB4iApDS57swrlCtepixn1MlRgSdBsNUl3XpVbpo4r+4K36iepN0gtuaV4aUqt/pMEbS2pCc5LCVwifC5cUaq8W9Q80sT+QIXiO6TC235hNEJ6Qet7GjOeeKtauX4+X6rUztZokVaSVt4Yw1QvoLVB5m1Ir2qF6qU5NmpYpDu1fwHriK5wxa9ATp3nvzBSg44UOlbsRW/bA7qUbMzFT4qOrI7q1PlEFBlJrROpwPW9tSP2om/mOxt+SmjRD5R9IzbynfKXOmL8aDVJse1ITp5H2voCfcaORJkN0iIH12qxB8QfdD8JMeYIqWq5fwz1VZDQl0kEXqgbOeuludPM80YTaUoOeOE1sKTXrm0rRJHzV8EZxV5Oae5NG2QM+Te6KlgPVYMDxM5wCyjejjixBtZ+uC5itQepIIehedUOVmEpJ6k+hnDNxmO6l1KNv0XiAJtqhQd09DZ6mRMri+HWgEL523FNE21OrvaEJTbElucoaOgenFtb3Tq6eYmg04JwPpYAY3GzIDjQF6DqYIU0p2PQrvaRSf6ZkGqELlnBmmaZLnJ/oe+pVdCrconp0pyL2yRQndgo4VL/CUZJSV5jmtYENU2F1W//E/NrO0cXdiz+qYOoGAc6J91RQuZtwZQM6gnRtzAhtdGGzfkXnVDifknksBQ9ntnk6tjURp6je21IxLStfqXNmmt9RimVnKmQCaa8suknlHWOL28fXTx8RGXU0CrD8eEgFMbzVlAXoCdG1MiN20oVM+nnOqNSfKVkm6QIuzhx/DAW6YjThmVQsNypFs0DT66M4rUjF9Zcm+Rf0dbXNbJy/hJFBwwCp+SiZCir3465vXx+d2sKM1EsXYMB9SjeXknU6BTtnzkV+gm1a1NzRKPupFEbw65AHaMufKT6aU6m5ovEP6CHUzew9JZBR4wAoXQikghjeaPju9Yep5GZ2+un8DBScUCmzqc2mYOXMtcyPt0kL9wYN3lvphDb5K/XMTiVdUqj9qXSFaB5KtSMNCzdJZNdIwD54lxIqN/2m790gXaKJGdMgXYCFU6rkVGozKdh4W+HnsV4LcZzKW0dn+qlQzJupYDP5Fc5b6Mgk0h4Kmrmmb1Rk2VBAbNiNp4L4MefOxgzRBRkoPKOKT6Q2lYKTM+cSP6flWkB7hCY4Smc5USlaRbqJEMV+CZ1rnSYyB1pXbMSQbWMBKJp/Twlj6xXfuR8hKqWZGfMwXdisX9E5VWQ0JcsEXbCAM8cCP/NWTSqvaBIbdK4Afh32AH3zG8VTA13NNc1ri1YVh6ipnKBXjAysfVdqKigf1H7jeumwhZOIVb+SC6rQcErm8RQ8nNl/p6AmmQ0fV4OmzmUavBZphDr5K/XSloLrjiLRQ9cdprm0a+TexxSTT0frCzNT42PUo5N3RgakZj2cCipnDd+37hTamJF+pODSr+Kayt+fkmkkhWLOrHN0H9PjzA6WCdqQQarXMhrTuPKV8tucAhxR4LRIQ6aQMvkXtJV+KXThvanWEhtouGRoAAWTT6mgelH1bWsL0nUwI3TQRUuIbnV3VG9dKUn9dKFSzkwTVMop8N/kpwn00Vh2VIp2MZU/MYoNN03BBo1vQBtSG0Dql4lC0NjoQGo7SqSA8kHRd63eT9fFDDSkUK1f8yPVfVNKQlcKFZwJQ3QnBlB6TBNbpHG84deRIki174Piuoam9prmvkwb07pKFfghQpoCKF30pYDJFdM3rcJH10eYqVSpYs36db5SXVanBC104XrCF/TQnRuAdZ5GPacgFcmv1GtbShWPFKFOmp4QzYGgTVEAqedNoPmy8YF16CEFDPV80wo/6MZMzJQEqOJ9gm4DPqrj4tTq6SKdvLUqNHhjANCjUuBLwVfSgPKV8secknROgWMUZAYpI3OgqdgrU/lLIZ2B2HKm0KnXBd8zyxvdvI0ZzzVVYkLUbSpMtWVPrTpGFR3irT5A9SwYQN0rja/9K8uaStEupgRrSYpl+1cFmzQvLdqY/ypU27b0BlC5L1NhdPR7Bnd0awXMuLapkov6/UlSLULqFV6q+DRvVQ9UXocBFO3QRH9+Zb+nCHsg9ZEAxWnFV3U3NBcObax3Ko06bk53ULIjUykX5u/ZkUy1X8yMdY5K3pN020Da5KQGJTdUiUWBs5IjKl+lAZgmaZTjr4pj+KV6YdWg7pnC2/pVX4hCXgNtHWGkahV1WEkTUHJIhYGa79lKnOqqnBmxg0p9MOllPaLy9WlQeEiV3ObNuUgV7DEAaE9Q4LPjM7FT+UqZN2lgu6RQhr4gc0jpG9CGlCSplDJIf1D/RBUZ+56NR6jea5mBsggNhhx6lV1R3TZo4FymUq54E4epYvNGUHVH42v5zPxb/UpuETSALeUr/GX6rHCb5q5cG6GOLuHOBMyjCk1ig3zLmv1USjs77kuqWA3Rqe2Zas+tgXmUCj8snEFLkkY5IQZQsEYTmf3Mfk4RLAAtp0IUe8WfNd7T7AsaNctU4YwAKp5plIvvmdtLheMmZmy/qBIjok4TIao/oCFppQtXEc4q7mnwvdAAxGEa+fCzwiB+qZ5aNGl9pXho/GwwShGZBW3FdjpfQUZQsE6j3n/PyLVKtVXIjNCi0Mibkk5/VZrIsBZQGaaKjfLmWqWKDBsANEUo8Nn2j9CofiXPmjRx31DE+j4RfyPlc4tWPXQfuqymD+sMDb5+z2AxRvVWxwwUPtOozzZ9XGdIe9eoSdE5lbwvcib2UynnZgMoO6fxNf5jnqJINgqawD4FzpJ/ig9ozpxa/aALZAbmcaq3b1pngAqHRWZsCzQYryO6dL5SbTk1sf+iQp+HM6h+o8FQhwHYf9NEpv6x7VP4naDtfJRis+Cf1mcKeRW06qMLuzMCyyTV0zfN9UR3VMKM0JygkRdEXRYTNMlJ0FTooItPEc6cy1TKhZM/6KaR9/8p8OKXyqFZo24vxVXNP6MJio8BzbrpEp6MwDpLo95+02AzQZUYEFkB1wWN+uLWo+gKaR+atYGyNyr1qZAz0p6gwfhPM381rxT4bAEg1cpX8qSkUekdRaALAEzLSHldppXQSqdUER3W0odjgUY5+a61+6nwspoZ04BKgfK4qMN0mGrDqZF9gQqTCxa+wLNPheEfJu4Kt2l89QCmYfWrRJ2gkXhEgRMAUH5Cs0W0IlVJKrVbygQ8+zTJze+a5UqlwrVCVsDzSqO+lGtXcYO04QHQmDQnqDA2YOZL6EpQYXDArp8g6GMao4lMANjWKT7soPVSgmLFBtDppQiNg+buGN0vSyZQ9UITm4fv+kiITl4sYsU8qVCguuvWyrWTpDoq1Qrch3QYHHRxBe5dOozOl4q6EEd5149SQQ9oilMkdwGcD/ilsmfWbMBHcVYBMK1Q3NdpZ3tWafC2MAOQRpA23Ptts1+pVKhsNVjZgKIXGlQWy0QtxOK1GNImJkBzsT1Oh/GlartGTS9MQMMHHapXfaUWrUwFZW0LzyquunQpu6TAt/qqnuRXyRFRs5oHiuBMRdMxUu6btTNvKVTqkFkz8tdYBEE7sfmWylf2bYMBPx3i20xtoZVQCBanp6y2viA106hMg3jRU+ayECqTo6T7Qkbq43LtwLmdAqL3d2OJ00xSIBbXTJANy0SCDlG9mqwvcZkJncleWFo3tP6oICIelOji+EOD8UASv45VEM2spxSohKJIGfsJ2ov9MhX6ehxawZqx1HXVVxQXOCxiKpKjtP8aadVb4fsmbidTQAweTHfUVJaXlZVXVjd2ja8cvyRCY6lBwS0d4sPfiY6aqsrysvLyiqrq5sGlOxnpI4OgI6l5SwUxebsy2lZTWVZaUlxcUlJWVlnTNrETRjagYFtJARET12tjHbWVFeWlJcUlpRXVzUO/9x8S+OVZuS6km4pafbaA9n8VihSf23QAj58Ow3/qi51mkdBJFkdB2aGhWI5Q+bjcXpjoba2rqqwoLysrLyuvrGkaWLpVkTr2C77xlTdqKv8qoXev1xeW8fPYvAZiezSFf5V4+MPr9QXjCqaubhTqAab+aEqfKmHv48P11f3DmzekYsp6QMmZmtLnEb/38e764dmfxBRvq3WB6neN5FWTDmMBrY5depiWFDrE2PXaeG9rbVVlZWVFZWVVdU1z3+TC9n3cUNxnSJkM+9+9Xq/3I6Ji6t7K7xx0vWiRsrKqAVjX1NR0va0HfW1/YprorAupvJa10f6lTp/CXY0SPYIOTU8ayYugJynzpvKlnEjGw7GkjJryV3ZFo2tyE773Y+/64a4WpPhBZcjXB3rbl6JGAlB2mmDK16SPeVyjsAd0dJ1r5O3VBcThsDb68ldzy8hT+TcPRl5V3Y5FDUCovVeYeR+QdAPb74ChQOFWiKVoqz7QmNREvTLpAVsaXZToA6bFSNppemTDNwLf/p7bpF7nTi2AVF7G2Ug+dAvAoNT7FDcSMA89J9iJt+tUdq1J8peky3RYm7+gt+mPT00zna9MBObJ9w/KtwOKPjdlmgA4V/2Kfkp4pwLYJKVrH0mWNt06ASn9+5FgQ45eVOvkWNQk3izo0v6iSWBENxB67yJsXVbw9uOdAeVtWoBsoNR3GVL0eKjTCMS200BSn2TovNcCzAq1W96IwoKaiASefgh6AQhVf70RRS85/H48XkR0Eno08TtA1+IrTW6q9QNwzj6Ekswkw4sWjZ7onLqMBnRTQqfNkC209J18RGVtlHjkpEIrAKlz9z2c1EhNhN/3umzANPFMXH6E4ooOSiIa8t1vjjXYgEniGTv1heOqRmoiEnjbHy4SQP+Kx0Q85cimpA9Zi0RTjsVWTSwAWHu3XwLRpKqPkowGfQ+7P2ygrfM4Ev068mrTZfhd1UWO+s5+mCGLSMonj1+DkVhCUVVEVZGTiVgk5H87X+wtBj1J8eDmky8YiSWSsqKoqqLIyXgsEvTdrw8UCcA+KepdufT6Q5FYPCnLiqKqiiInk/FoJBTwvZytTXYUicCyUPJj+eojEIrEE4mkrCiKIsvJWCQU8N2tj9RZgU1z2+pKyj+LiD5Q1D81merseDkwa22a2Lr1+oPhSCwWTySSSfnzZCIejYQDvpfLzZmOIhE0F8rHJr+eaBF0KZw9e/rwB8PRWCKRlBVFUVVVUeRkIh4NBd6Op6oFyDpa6wbnN05v7l+frs+Pdldmh9pKTMCi6GkZ+bm6d3x5dXd9dX68vTw32FggAr/EVNY+PLu0dXR8eXV3fXV6vLu5PD3YUeeRgE/iqOoY/b26sX10eXV1enyw+Wuko9opQGZLLKWNPaNzv5ZXN7Z3D4//Pdpd+z013F3nlsBIBXtFS+/Yr5WNvZOLq6vr+7uL04OdjT8TXZVWyFYSemCZpAhGSFIE7gk9ZMwkdTBqkjr85////P+f///z/3/+/8////n/P///5////P+f//9/ngBWUDggMCwAADAoAZ0BKiADIAM+USaPRiOiISEl0VlQcAoJY278fJijyn/BfwF8cpMen3gb9ev8N5wON+AL2A2SEO/xH+AfgX+1/+W9X/4v+AfgB+rv8M6gD+E/wX8Df2u/6W3/8//p/5oT9H/hP4Hfu/fRYc/hP7f/jP9j/aP//6Eldenf2X9mf6/+3XoMY0+l/2T+5/4v+uft/8iPInyX/MecB4d+Yf7z/G/439ifeP/kP63+Jf0D/hX92/8v+G/qvyAfxb+Uf77/G/6f9kvix9Q39T/834zfAD+e/5P/0/539//li/zf+z/vv7//ID+g/7f9vf7d8gH9G/zX/z9nb/pf/H3Av8F/6vYB/nn+k/+/st/8D9pP+Z8i39N/3H7s/Ad/Sf8L/+v9t/2PgA/8P//9gD/r////3/CX/AP3////xf9G/4B+A34qfu/3+D47u7u7u7u7u7u7u7u7u7u7u7u7u7u7u7u7u7u7u7u7u7u7u7u7u7u7u7u7u7u7u7u7u7u7u7u7u7u7u7u7u7u7u7u7u7u7u7u7u7u7u7uaWVRezTqEMM1gK7NYCuzWArs1gK7NYCuzWArs1gK7NYCuzWArs1GdadFFq9JIwV6vJWuq+FWioWIy660VCxGXXWioWIy660QWnhxrfJWnRRaJbGygac8o5J3d3d3d3d3d3d3Pe3oGnPKOSc98HE6KLV6SBV/4PH97x0WL4UoGnPKAYBSgac8o5I98HE6KLV5SDqjyTxSt+bnwwNSYqdGjW+StOieJo1vkrTootEtjZQNOcjjvgnWqa5wTZyVW33cbQbUXtsqKWgVx/MG1ch0gqOSdz3t6BpzyjknPfBxOii0QBWg2ZQ9xAYXQopXrwaGWMX0hI5iuQEgV6SQUerTootXpJBR+TA04kPTu7nwD9WaPo24LGBpQGT7ckD63duCDsxmeDIgkZhR6tOii1ekkFH5MDTg6IR4Ko4CuHc1snSgIiIYDSRwVpeNzDUmtwr3gkAiXwnvvb1mZmZmZhR+TA0lC7pfZvojJA9XrsFGGjMArnTiyH2FXRXnTK4fm4dyryHW2nRRavSSCj1acalWEXw5/dla2Hufl8CAhvmQd6vSSYpYz7ZKVZca1v60ck7u7u7nvg4lgFwq2Ts0eJi6Tbmvcer8hJGZma/HE1qt6gxYvO7u7u7nvby1cyvV5YWzxMClgz+2O6e09M/8giPJrRon3dHhyTr0CHBXb620oaF3d3d3d3c98HAc8y1iX54kWAWbSCpFgxEiCfWKLJknkutZOFCIyQJmf7M2+YikoJhmZmZmZmYUen1qg8MEtiOE9ZasCPUZioIiRkDkSpqPwnRkAwZ3MSOdy1RMHbbJLxFmo92OR729A055RyTnvgx2C4Ioh2lJ9jd7AAPQ5Lr5szYtwIRy2p6fq5AC1GgxVRmuXB7wChEmiR2pE1CHE0a3yVp0UWiWqdouwUJxX029t2z9U3EJAU2goquX8CYXylMUWr3QTApxdNw3q9JIzMzMKPxrcCOb0im8jRhai9PSgTTVeB03Yhhsk+KofgnqYDHc/XaDNA6KR7ITtt97eszMzMzMKPT+khAD1gyTyL551q6L8Oc+tOZBu8ILkwn8DNs1cvU+W2v7d3fQIFimm+CbAKXvEb29A055RyTnvg3+d6nBk94uMAO3oGrt5vNo5y1rdYoL0IJkp5QDFo55eY3bcMSgxWxQIypsQ/V3KvSSMzMzMKPVgBc2+G3YdwNYj0giE7BbUI73H98oxl3X1bIBUQQ4hbFxCirpg3KvSSMzMzMKPyVqueklLxFmo+Q6NawECB1ouiGi+3kgiLtC/tBaaTCHu1ImJEa8Tkn34SNPeeSTQDLDer0kjMzMwo9WlhL45qw6Tpf9wJbaB2s9Q7cW050KL0XW4SRZo6wk7EV5c5UVYvhSgac8bYBSWq5Zrq6zlYMANtzYpmjs//PdoSf/hwKedWpJ8lrFRpzpsWobT6wlVhJi7u7u7u7ue9vP5TQpR7Vgy23uz72FW7/qLFnYHjnC5E8xDy+ryHW2nRRavSSCj1acbvV0csJYvhO9hFM2EWUErrBSGWfgXd7n8J7729ZmZmZmYUerTjeMWAbQKlOhvFqKT9rfHLw0tfc4LP8WWXlHHb29A055RyTnvb0C/wECy2iBB8lNlF/95jz2DoyuWZxmYgbCKs8J8aGZmYUerTootXpJBR6tOhpe9hZ0tZooBHKR/WuMsitKCsCDB9H4VgtKpSotXo06206KLV6SQUerTonkXiCSOeT6cNPbJuODmKYkrToniaNb5K06KLRLVb5K07ZHOt3N1ylMUgZcYcxWngFYYPbDzlQ+QX+XmPXa3yVpQ0Lu7u7u7u5729A055RyzPPjARKlDKQj07hlQzXRavSSMKPVp0UWr0kgo9WnRRavSSMzbc4da9Q4JavSSMKPVp0UWr0kgo9WnRRavSSMzMzMzMzMzMzMwo9WnRRavSSClibiWr0kjMzMzMzMzMzMzMzEd/FekkZmZmYplMZ0BSQXYnx5ypkXbyVF28lRdvJUXbyVF28lRdvJUXbyVF28lRdvHD/NbphOii1ekkZmZmZmZmZmZmZmZmZmZmZmZmZmZmZmZmZmZmZmZmZmJAfBAotXpJGZmZmZmZmZmZmZmZmZhzQ/OYTD/G1r66F0BYZuXsgaYezTsWJRV8/zILI1kA1VYLl131+egWq/eVQXzmQP+JMP/jW+StOii0hE/DKs+vpucEwCcbKUON1Qp5HSEZDPAbsru20FGH2qQWr71exx+Y2NEN6BpzyjknSxmMKmGFIFPm4PlWArbJGqN0BcV7I41JGDdX514S8kF+zBbfA58hjH4HVlOnOWnPKOSd3dLGYwqYBAtjh097NC1ngXIl6Sd61w70OsZ1SJo6lC2Tn+9YbeXsi1sBFVC22QqGtNb5K06GuKtHUdndqgOYxC91UC5pgvgqT3FdygE5E6gSozzLdKCTnYV0bQATxQsAOfB3eSAGALdXpJGZmZiidFa0JAG0CP+8iSZpl0FttSQBqFvSmlSkQVmcVjcC0QTt1fW7ZZf8DRu5Xv/7f3ALU5mZmZmZmZmZmZmZmZmZmZmZmZmZmZmZmZmZmZmZmZmZmZmZmZmZmZmZmZmZmZmZmZmZmZmZmZmZmZmZmZmZmZmZmZmZmZmZmZmZmZmZmAAAP6nVQAAAAAAAAAAAAAAEkfwpMJwp8odqRiEYol/uUjToOWDVAGWnesC7kSWQARGAAcAAAPlr5Rl3svi+K2qlhuPEy4LV3R2xAaFfLAuSEF9vxBRRsSH6f9+1Rgr2NJPWcaLBcJU7KBFtNXE/eczJwQAAASxztkw/jmXFofREiZF4f/+E8oBI8dd3Sv3EF3qLl8OQhpglFympHGJn5ozQAAJHLeOa8/iNwgjgtBCoA1/8E5AKg8vVR9OhkvhQlT6xQqxxtggqYv6DZU2Yr2XGhqa4Cnf5HcV1cR92IGCN6BIr/d58keo9Ul/udEPKzTy0JHaWa4VDcPMx/Kg7EZnNb9KwAAFpuI5wAaGMxrSHVQrS6JBqnJ6Sezx5W3RpqevUFZI13HquIw5cnHHGosQ1r8bsEIQFG6md7sExKG4NCtv3OLdy3OwTUrsKyizy59VAtlguDC98iY7CLimu8Qs6vvUhRnMhUtHJbID+mO2RGJewRWWPUtUCkEFeKkYo8u9+UCZoww0giWmQLEzzevN7/JIZ3K8g+BMNUZumcGrUt4HQL0+BLBv1f4RvTkA25mYp3LoLM0LAlXcbbxR/EZR5nkm4XDfHOeABIXCZUm5e0N4O49f6hIGRnlvyTAQMZ+Hhzo7sjJKoDvrL0LT/A4P83srZon5VSeLlq22wtoiEsulQMMJiHiTxMQhs6ky7vJObnpmX0VLCvp0xhKFyDWoHXstHy89GVRla+phJ5iK/IoVs3eNl24pzNM7XQ0ZrDfD+8QRGKACC2kp/Z0QJklgFx/iN0uyrI9efXX7eF4L/FzBhHpMg/Bqo5beK0U2IDwOIcvP55yXDEE5YGOniqqrUbN0Tsy//pQO9EL6J1lXBQg6BpWwCkBbCaGc4BrBuP2Xz+wsH1sWaPZ6ShgFp167f44yLDUUEGPRsFn1fDJ2aqavbB/BBOw7sRQlPmg3mzbV+ngBk2+OmeTQJiYf6Ft/PqVrSylNFhmHZIxapC6CK4nHxfvGXZpGIuKKa6FZgAVW4pV/+bZD3fb+rpcgyUqU+2+oiICBMldqyS3IZBCbc/nc8iCva6ha5kUPSfMsT/L1FFguNwnqe1eJ3PhTQaq5l1ZIxV47i8rHSOSrfmeKQ2rkFuXrxrQ0ZqgrGoLjoxMFTRKNrGfsxiz7+p1howxzA3JGYDyidqapYANS/Odv9KIJSXKKrlIAAA22SYwyADoCiDAVixOsk59aTlWmVTDM7kt4f3fMnABy/vwLJK+7KjQBT7jCqoHvUY/j+5cxEbD49dykJxwtqs0h1Vt8Y8Ao4KAb4Sp7DyDoWSpSan2Q+EuLzNBWk2TpcIL5tIJiz/KNMuYNhs4BxiVExdHUyT2Qok6CQS43ejoLEcmst96kIWcXYniD3rSXLwu5dxPf3BoanIwH2T1uKOLFeGhtqrueA3Shzc3ODUyZ6PP3hvhZntN9W86NDoa6y9nyUBdeot9Nwr0d1NZdV0G/WpOAXOkwq6Bh2AW0raLdOMPLE+mRtwkB8Z/gELcMa//NvWApRM/ptmBMbRDzA7aoJHrWw44t+t9IDGIQrgWFff38HEXQ1zuaTF8Gehg0zG7fKulThRsNYzHywAI4K/n594IMeNWkxIiIdiXKVqWRbBv4CsbJF33EkahIpt+XcreavW4ipa3fbSY6K2SAsmNVFNr2Acywbwi11St/yQ3wszSf5wWvJPEjVKU77xspvQVRToo5PSi2gc/T2X9xyyjMqs13I4KmUdO/ACoCR13TTG6VytgcDLXR0w4AyVfbc/IVc/xXFcpwi+bDng22Yx0FxLFFB6t4BIUGPXxUUn4pFUfC8orieUaG2eCJJj8NJiHed7kJukqN7K1EbsikqOUx7HWb0Ix0+t1RwRWnowxW5Yz8MSq4b9Bnu7lWFZbQcg/GpdRV6ZKgqrYQALTccyTHXGs962bz4xa0O7yWgF0xPbio5ZHg0W8Y0Oezi1rb18mLoeNYWxQEntmQFiKhSSCR35LZX0ErRIZAnk0BgnNmxT+Khb3tPx2N6Xa6UVBPrRBfBnv/L1MOcIFkTyUH9Gv1rv8YKfTmC2qNfUqxDCZSuOGq2ko1+QgiWuSdbSCsE8UZ37Y2PpjIMwn88kTB54fGmYoLXjEYxfKm9D54ZYlGtevFPJ31Ai5nB0XKJOQ79x9NxitM3tNDG1C+f0gnsJz6WdjB+KxFeY0KaHz3NAiYTTc5zHfm4dgtAZcvprGzC5PoACVdZ/X7h3Hr/VgEM9cneitw0jnVJlXfmEkkWpUHrYuSpvmcRHYiC9a2/hzolwuO5LCB3Ph3mmCwYEng8pX+yQVpz9GLNhOLMl0xroTwbS5mqX/0yN9qUVFoqo0PanK7or3Hq24V/fHZBdo3bjfN3na+YO7LZ9dpYK1NDZkudo+hQNMTAs2KfQ4LsB/s8gIJTir/yefMQE2SR+pTYsz5XgFM6E9LUJ4bdTAeeun5658r+1+LFeAWt9wXEd+TpqeNLpCOs4lUeEbrPrZ07Rfh9ESJjXtz+N0zhWQfOvN3sFwmnjnEEN0HVul/50nwCSfE+NY8BMH2lO1UY7hRKFx1r8gkl+FW58tURkg+lLYobXZe0MoaZj2cb5bnw1/fU20TmsbsJByWSA3NnK+lo96HpU3bv7fOvKlj2QStDJ0kNoJ8atAqJ4UZQP62+DKCoQN9DVIQyrrpHEwPcFMqH8IY9d1oe5/jM6g0tzGmjJtgjE8bEZYbJwOxvD5ZGF17eW5YyiYymotmanIDDFdy4jEe5HpR9UQ3sQnagxk78owKsHfLaMQ0gnm1r0vOZiONParyo1OdQzewTAbdGmJekaWQASrrWDVYT2nSb9LWRQfSSRiu+EJsPikElXMtndjv1g75nA1QzMqrQtND25Tdm9eR5THrvcHcQOuFcld7s8MCF3Ohiq92yB7ZpmiRbz/mVan8JGuM9xPhlD//otBiXqYiM7teIZKuxqGKwq/U4JUboZxOKe0Qs5RRUxHvIUZCflB/1OiirJ1ekr6GibKRL80/AVKOPots/j4bpXwsKrd1cKsv/qxOi7EuMbDHAW7hfEqY+pXuhix6J35zMFiF8wI/OaLSczAPr9YbLMaTTPkgMUDlAzqRXnW914ZbW01NyqfSxJYop42k9o7urKvkaRw28SHsXZPqUn3ccX74c4iL3cUn2dXTn5NGQTvMbsnE5UD+wD9IzSy6JnYUg6AnJx7j1277aS+fTf7OkFl2fdLe6JBADQK2MTdHVwt8feaVxJBwVMw00bX45AEHjuDeXwPYmffPgr1pRzJO7QLVsnS1wMe6lGX5t8S1KC/NvhnUHCq8dmhjEOxji7VTL98OMwvATfREDOaKvf3CEapn1/ufy73gmJflw/68tKlft7CTm6kM6lL8XhnPe4Yb2/WexV2BPd0wAjXxD4ni4r9c/DyqvnnhDRltLt7wnqO2V8NDYv5SCm/2wTSUdm05BC8wIP6dyMmss3Fy0vHnEl/MfoTltCjRCvhxuCQjXIBHce7J6GV9xDv1qAb8eUe7Pncs6tQfq6mciAqgCh/fGMuVZ4jJ2aslPwnEsJ7pibtf3w+HSaHW2smZvv2KMwTaw4Utu2nwG9CCMCijAULTlhApEO/EffnDafqeUqr2NuqrZRgB2xzslVOgYm0Ro8LXvWgFKJtmhYP1KyL/bK3pK3Ul9yVvpUXUv/VD+pA79HDx+An3yfoJDJvacGUKAooYmV/DOAAAVlfJl4s4pWzoDdnS5BOgAwOHvf0Gc3G5YOI4ABCutyBjeNDU09M1RzPVwk+Rp0wnOKv4ALlPry+pbhCga7KK8fZqmDHHlCsWetQ3Qnxd92nt7w7MP+LuKnec9JUQ0hZ2i+QtV2be5mDcyAPho7vFOFy/9ZfNzREnzxgoEMQ4Bzs7lPqwwD2mYPbvL/XiUkkqY4s93y2APz2dYN0dVcVzrNyf8aT25h1BUHtoANkJqwhnxJttuvCwHfbob8o/xg2BIZQZ0js1Pj6UBIUAyRZuHkqSbpJzKF0ZY7wIr7Zit4iAYUVxpYHdplMICub9q0Vbbd64m6eIY7kYfJgajFntrO+BRD07/zy3/AgcxzFTMY/OOs3aJtDraVNW3B5+2iVu8Ztr0o7e3RJ1GiC5cklv+k/bkiIvoAkGsPdY9UMmpqC++QRS4cb/nDSwymPz2S1hYDMevqct1hq9ieJMqtSUIbkPboTmgivVquyh2v2IFOF69o2luhoz5NT6dJ0nYiqvSHZIfkwiBC2Ao3IlyZtqb0qNlOfiqSLjcm9ScQjZ9fUd6o7abM392d6xWptfLgAMSrAIAWn42uFQq50jnYJVKNOEyIFK9fqpocZBHdYyoOhoy4JVnu/frgPZKnVcZ8p41TnueefODKS1aRaalbm/FzZrLP8fGruF0iT+J6ncQ59HqcKpW1/3h02OZPtaOTc/gsIUPWnYEu3Cq40yuR8opv+rcfKgHDbo+WeVEvmdzU6OBwMejv0hoLwWh69g6puK5fW7edmuB3y1aNADapbPyieLkNyeUmVs51a6ADA4eofK3luAXBf3iiybZoBIa/0x6weWSD1FwFqt1gIE4345hiPJ4HrqNfXiw2TFfswxg1yKla8qz5473gY2FUps1QFTTqrPeHIMXVNpwJJaD1HE4/FwM3cAAc07oZh7xwyxsURdq+WK25trvXxVF05RtY1vQJ1PASbxzjkqjz/irgBR4cYFIhKmXz67LZZSxeUWmLuAAdV+mMZP/41UK0uiQWyUireJxTnNa+KK/zt+4TT5PNbQWL8X5/9vwpFBif+ZRNlNdoHiP2ZffEbIsHc1LBz3272jP9cY+Tbn6NntHmnoY8qn4U2c+8GObTs4macI8k+3TPNdp0Xa9Nu6eCGCqhbehzFPWNl5K0qzoiDYKcAW0rdaMA1u/LNTDSdN5X2vUjdu1ks6cCnZ9nWbEdc1XaKGHX1mHX/+cdkm8uZfRsNaVQremyrzKGhX4kWt4NU3X7ugv6jS0dO5Ff3p4BhHmZBJMnlHdnhWjwT4ykxpoO3R9yVZGNvq0/3BMX50/rWCt42wh1B9mUZF28vkcWAMntCJnlwnRVz2qrVGZpMCGHC2tosqgnF92VtQp1h0FP+AIL+yxXe5CqBCiT2cwWtgnKJNQzYtym7N7VFwAZNWvLDDs2vRWiTsZLEff79VahvHht+3zAgOn9DBUqM4e+H6e7/rrXfUbAFVAJ7+tl4XkhEZz9vcW1IH3N7wPpGoh+8V6zj6VJJIlQynBM5jlPOeiSiYDWUgWpJhvEjB/zgt65sFXFfT2c+Pu+H2CSi25T36rV4ab2EXPfs3VruBUhZ/2twuuSFETu0vaT77j8P4tDGvYRc99xEeyM0ByQZ17CLxz4rQndvK8/L7OVj05ZggbP9Ycvh8grLixxR25eIKweb0af7mOLt0qj+q81VP04CcNU/x2pxKwpcGQc8hTJsF2I/5ZQnvkIaVSXfT+CauNSz1UDMk1X1wkLRn1H/P1ekZ5ErMGkNacAAU2V99DWlyTgsklPEM8ejI0MAL0Xdq0UuxNv5kmyRinK/1xOPi+tzh303Yumq+PjNtFUh05eTcIJ77PQASTraCrNSKRh1OdNsU8LAWC2HrdhjBWrSpnUgy2XedssO9ZyXOPCwXFIbEYsLFT3BB5v04hDBnk66feSTkzsWNqH+nFZ+04qZ0x4oeLrM7du+cfOqd/4FpFG97M79HYe97flK8Qc1uIylUnhlcKq4dt6Tjc7XpmZ3Elid+zIYVL+hM7+aTcPByFOfa0pHHU7/w3gQweVkz9kwtMJVjTj1uj3yIfq1KbXaRIWvmhand51BOyxU3ruD2UeRH6/G6Tor4sT7AZYJYuT7JGw7aVdRSwOzQ86OQoc2JzVWdUhSExRL/cpGmxrS/K48AuyLmQV/cBYtGS4ZpaOUaoOeVVzXmzIQE+4TEsHrz66/b2X4xGzSClUtVeRSTo6sa9hQMrp7kthV+vsP77KtXNfZjFEsa5XC1uYbAmbrYqf0LiSDWGH1LmirB6k5P40/KFMEXkO0KK69lDwPNONo8A1+UU8RVciqPYA8wbmNCioZdButzbVMjduMJC94lrh3fBLjbgY8P4UXVsytpguHXto5B/rEe/Mpa1MwAZNV4+os7QvcThniq0lY7SVO4EUcsrnI6zH5AUTcCltjS7bcyeMvvW9Ssw3Hu1e1o1QVesnMV5+Agq8GoMvsu92wmlT+7oV5sV9HjbK+IvRo56jKmV874d1JhuJ7Ao8Iw+7BtnngnnulpWr/OxlKiDMwwBJBcM9pF+9uJew4kiC5+TyvV9zvqjE6B5yTDIGHRmF2o/gso6QAhSV7YPuju/OZupyKYZ+lhiyst+o7ZXMrZQsp+9Q2A4k1PMf+YmZMtEdrNjc+KIehmpTk7543bwdEndRb6W9/5WbxTeKJlRt52b4hrJCucQ7mOAs+RmOZhalAsUg/cv6V56E+eTWrObSmu/IzOmnUb77oUc954jFkoJCZIqbg73z8UoDCPB20Y/5poK9jST1lx/mXB5RFPoAB9X50PsZyXsiNi0z1zIlfpIgEognt3RMkyFuRK8u6Or3+p9TIEjT1Zu0Ebk2qYoUX68tHStZza1fe2BCUVa/QdYEsLOhVXFii0MmNnQ3ZcbiGSknyPGY1pDbOU02tpIcnpJ7JL3wDgshXxpxHiAAJjYFXEmyiDJ85wQBVyQhb3nhOUYIX+T3UhdipXFyPuONfgiz4gFa6BbeESQLQlH3fmEEsXm6vxqRqa8EtB/tck8SpHaxHhj8imEk+B45OrXyeHVZQZB6Tdp+aOYq9ZiCtuitKFL79wBVVdTaS3oKEFrIfS3t3vQ4hSCYPYFQ+cqEBskEHsFDivjKRaRg4RSWXYRasDeyWvtapiBSk0MHCt55lmJUqEItMXePJEDDnZ3rmuVeviYaEgHVPAGMq7kfm40LIdvtDAE5ehRA3mc8v9aWNIS/MIwj8Gh78BvhJtKTzWXl+IzZZw6gqM9DEf1QXYh1Kv6EQStQ0EX8xsGRmmhwBTyY3PnhTznp8fyXwlMlBi25tplCZpWeWzhc7NLWpDEeqg+0ZfVsPtb7mEqKhxoOorfc/jPFzzTWyALYxJH6DoJEho0Nt7aOyq5SusAJ1/7SxzFVBodpnWp8TUuiYNW1suW+dRa3dlpRJFu6qdbKkAPHdkaiv9+YlrLtktvx0KGbzCBwQRvdOG0PZKjrTBq9ecVfVAipD/gWB8XpWf/6LhZp6WNr7dmIDJNApjGCMzVL9IGnylP8piKV0121jmIbD+U6bSEVj/FoV0R656ZVP0dCwcz+q70Ya1NqOJ9J9ax8ECA6cooJHSLkbzkTV6Amk+agjBkMGiwaxJBCfixInvjFES7WJLVN2lS9fmgLEDQXeOnWkDMQOpz+0+28AyrE6zNYtJaPs1BkwN4MKMEY+hUGJtrifaTU25XafwPikRPq+Gu8VBwA2dWr1hcKvhID40MtFFsZkgnhlfdIqGd6HmGNBhAPdT33/vOwb+gEfA20XyFqb3oinsIsaMuGdLe79+uA9lvKCFsg5ErZjW0S6a7maqRv1kg13VrpFaRgJh1nZxmotavw9zZY/6wz/Al38Ss51Ixi3L1iCGr9VppbD1t23wsFGSHHURGawECmRUoyE1Z67ja6KAKgcmPynQQOcYu49h4WS36im7E22wofut1Huor3Q+9buDgWBWewxgSmWtQQU9CQCHSs/OtUtb1Ayr7f6+B5QVBV6/DZTtoPcKBQNjOGSv6rE0zxL8UNlckHYRi93FJ9qdmnbJuJikDoQCzwlwAEW5KErcFWrH5l78DbznIkKRPHW7LaooQE8FV9LDXIAsVT3ZLNWGtur9bviKB//czdcC9tBXOvi3Ga8xnWQ3HqKkbf9zLTOStENSJ9oSoq7pjVISwvVJlXfmEclMwAxFIfaYzazw6rdg2gyR3fuBnb2+K4c9DOtCya9f+UILyyXMjjmnFfgrh37r++wbJOJJ+gfu9VIAPKGVtDj3ZXzAwCJ13E0yR7McAee5xD4NBmNflBPTM3In+OKVF3yj0H9iut99rEYRHY5PyMpmK5a5+5fA/RZEKquptJcf2sVrk/7QZuUFadF/SmD0UV2KC54OIATrq5ZChudSDy6V9gahRCS0CHC6qgpTv+Bok33KFIzSD9pgWo5b1EAnLA0ubNDc3zXJPDDPkGfSMjLB4GCMu1q/+OXe1XkEVqwwtP/1KkyMqFyTawcSWTYTmrwYol/uUjS20dTylXRAoLxZHjl6VZ+LJ4ZGKM/SmSeWt3fa8dXZ8exy/sEezy9dCeEyjawyKxrTtZeTWIDIKeZna3u0DL/i++9B/YgH2HHORUDbJVf+79jLV/YJQibc7GEzucVZxtv9KIZsd7CLnuYa1JKr58pyhzYlI3tXRJAYCk7dg7qxFxIDaobLDwyj95mVH/IdOhXGaULm2LO1Mvj+Oe0OO8hnjF3Ni8fF5p0nrb48aH9RZkbf75SaJTt1N4kCIKk/QOfE+Vgs89VCvIJPj4Y6c0d233mspuzhbOnAEKj30g1ZEfu1NoUsNKMZEiYiPHhXaiqPGKvnA0IDjE5p+ugcKzJxRgC0aBWj4uyVvcLmwAB1Qy32DY7Z8nYMso8n8BKUH5/mbVOp+8WichQEr3LjG187iXzcEeNFQ/WFwLxZAXbfECu8JGKahW86zAPcg+wEVRjrRplF2kAAA75HCmJu4UTxBTfxC0Mcn9q6B06E7mzBivyrmyGTtoPdVHXinfoSA+NLlCEESpyrVYU+wPLZAcp0/BmQDkZ1eInaZeEharBDxxLFfgZ8rRucikermLWXe3KI1mPRjBTMaWoK/+/M/+TYYDEGkbd0OjaNDiSMx40zOwGC0t5GO8DBxiYh6vCbbKHi2+56vSEkuNE5hSnEMLZEdchLgi3rF1vYn5ORdwAB1Qyh8GMbgPIbRcdVKWZe9DtG0IYh2OsxMA7WVKBvffwVMg3Lv1m73xGEhCFhMPZrJHxX+Yqhhm0P8RNHXdShwoIlyWH9amWGbfDWW7YHbe+mLX/ojPlJB1d2+yvU39eoeY9oK/mWo0HGzT6mLzfXc+m1vrvxwcHXHdAzrWpDyAQ6ECln1bRC/zrMnpLH/WKGInWSqeW37lub/NHRKrRMUdISqrevdKL+FYG7+02lz1/VBeGNxOpFIW1mFtT9uQAyCyBSXvjjXKTIyoXcuMDhDE7Cc1eI2xdMfPWUBg0xCyiOVzkrI8cnW20cYJ8WoAAmFFOU/Eo6Ykjg8ozyOqXLYJommxQngJA4zCNAiZAPE8hVgSJ7S5UBpJsEMh4nLLZ2F2yEe+cg5sz6IwZw9rTtbj9mpxeeEJJCVsJJacEZ5GRQe22twkyIpvjuPX/CJMDibp3C9WAtHIVioTJMdHgwVeGHAwz3fZhNmIIN5fDOQJFV5LnpH4ipNa9TGc2aoVK/YilcwIJICnVprcmBjZY95OkdX+RBcGmplOmo1c4qOB/+e3GMm9r1Qpc8MiN7bA0ZZ8xcLNO5spvQVRKM+/zrfTt4HO9d9yu+ozDy3FDAS59Ctw1CQAA3oZQeOX9BMYNu9ik5k5vYltHUrf3B5wjvRAM+ibdE/wMBxc72b1dlZ5SSfElOlMiV4hGAWgnbXda5f8jL6FBP2CDYe/hjehLXjAbB0qcTYDks7fJoCpSqaIeUxCq/fR9To6ae+0yPDl8UE/SFcy7lbu4Z+h+mcir4141zntyWmCDHBZ+JnsdR+0A5T2ju+qXNp9xn1OOVSgSFxMDf7w0VjH039dpxizXJR54wG98yhf4XwNPlKf5a0rqOhCC5/RDFz2QWBGebPWWNAJe9rpMAnV3y7xRDy0FXbBGiyB/QqRXvr5T3UqQRKYwDzgtBL1VpP2AdlVCcJk8NTXUKc3W/ZfRw1/hNnv06hCd8Uu6YLcnbF4kiM357h2KtyDUJ7VyKla8u+o7Ll/cwAAAAzG7T3aHgCYkDTz/f0nZORXkSovYU0EbXfoq7z4p2OFij/amAfpeWOuw1Zr7559w5MzR1MbqwwRsVc2a/EgCg300xMC1HVPSFHCPD+N7fDDqgsHAs73FCMPzW9n7On/M8IJGbyvetLBbwt2DGFWWL0Qi6b1eKucfw8zz+2epADjk+aVYGgtZ7SaI5gbaUDJLkBEP8rhNAe0xbMF8bwceIIPlDo6zMjvZ8dkl/tgyUAGFtZ9+lnwT8c04llXVO+2hOsw3JWEUIv2HO+w+s09MAPUpxzDRMv/lS11CBWa3p1nAAA+oZQ1jCCwjqabbrMTf0vxZ1ShZYtpqY6k5dr027gHDSP8+QmUDPA0qtw4TmX3sKmWqjtNGKKUq/C7K4TiG4ArDedPx+OulnENJvGQaGTqYCJ/SGnClXoSvygoA7kZ/IKoNyUAofA+PsPS9Z7Rm88F3idNqqVVZbm1+EIjV7aa6Lzp9xYlSee4k37LQBPRm3LDhwDhBuCMz6sK4+Y+/eUAAFOwByiJafagqy84y7UifrBgGaRMNkODHg5jFpPnJ0jlTsXIl/smRIXNrnWDNafrFMbp7lFAZVpMuygKi8TJEz1MV4hd8+8lvwWBb2ueMBRcYLikNiNLDWtTNdBB1ox89PMzevdLy7BFgk0kZFEch7aJxt9txTlBnxulWjxnKYNlhcKy25XJa1FAOKX2hhbsJ0m5t0cqrxL2u90SO0N67RX7gqbR7SKEXax42UaiNaq0HOWP197pu9vdO09I0+cmwOusysRcoLI9eKwV66tHI4scyutGvmt9OEfmd/sx4PKHHaSxQkEga70BWgLshDZbiwpBmwRAXSkRJo6OwecVhdcJm0uxRqJDM5Q/CTf2ht5E6CtUCSMsI50b3kAn88tnxSmH3dOUistNPKR0sW+gAAYjdoAAGQCOMJXt+L6PIwTtgvsH9BQmGTu1Rp5RpYX86FZFX/1Q/cmm2MvhRvsSqnnuk8ZjaNtoIeEJalBW8C56WxtYhFlB1hhjwZfWAw/Nb2gdxvd86NiZmkrf/wK7EzviRhGqFnNLqluzARXsIsq3Bw0wKnFkz147FAp3+au3Ea2lMzmNvf07dPOZdpgwK3b/surgmQjEzz9wwmmaKhPh4AAjVFMABSEtNuxrIDOBXYmLFnPerRnKxO0QobnUg1xNZNIjraf2fGq1z2wICA3WtTVk42a3yF4jCwAAALdjAAAABHpMsIl1bVKiSRLalfgZFMt7nFIarYBR3DAr2EqgOIEUkIhZB7IlwACkVoh3mtMugMDHCxh7cw6gqFUX95BHmYmbRz9K9ZVqRNiUCYWzTnn9V6zfGuNO3+cgAV6QJxfcNYTkRRB+3KLzmqDkO/A0QABtf2P6+3EnlKC6tBOugVmQbuYEAAAAAAAAZ+736qKlAAAQ0zle7Y+zlPn9JVGXyOzH66SNW08HaEF9KfapHHjRjx0Cjx+ukzOz64gr6Ix8Pr6OAncZu0Qqv54gEH6FseM3ZSVLk/xnLp1tYbwhEmvLNhBLpcMfCVTob8sOhOQRmTEU9jRS/wlNddk4tnyhvh+EmaqBpMhBkmbI7cEuE+DDEz0y64L9kVcZmcbXEMWmlOvrx/wYyECKoT1SWUDvgsclijyhSQ0XjlPgFBfFAGnygRDUTQm89eTgmt19Mgl+LK+vCM2cjcAuchL8FqgjCIEBU6pgJLxrkSpwwNiu8SYTToqvXpnb7JdjQ9LIx8ph+YfTILXUWAlAAeFvCIjIQBvQA+vaU6/S4DFNWUbRTo/u0wdGYzZASs22hvl2yZa+84nmKhM7PVN3lesQwS3USRNKNJKKhRj+yF/Uk33eEa0LVqh9IoBZwj/3qcRgOOJIJLfD+s15ygq78v+UwZQCMxsarzbfxaKGCXWbnzn/+6/H9TR+uhg+J7KRmEmcqoum9pb4MEQAAAAAAAAAAAAAAAAAAAAAAA;" parent="1" vertex="1">
          <mxGeometry x="550" y="334.46" width="40" height="40" as="geometry" />
        </mxCell>
        <mxCell id="ailHdaVeLgmk8TJC5OJ2-20" value="" style="shape=image;verticalLabelPosition=bottom;labelBackgroundColor=default;verticalAlign=top;aspect=fixed;imageAspect=0;image=data:image/webp,UklGRi4cAABXRUJQVlA4TCIcAAAvewc3ENegoG0byaF25I7zT0NR20iOr3I6/ozuvUVB2zaSp3EYrPHn8twhZCNJj3D+VIcwBt8n+MAZrz8eQX8G4SEY6E/ToE6HTONq/rp48MffOpafmQk9N8sEb7dtVbVt21bOBRARgbLej///T0dvrSkFqDrWbntE9H8C8I////H/P/7//+xvm7BrF7W/tgm7drs+eXVj55u+SWXjOMMfY0qplPbu7MK+fVmB//2Pf/uX1fz3/7lKhd2H7qqw+/DgqWP3/kVqHHgI6Sj1ldnZf1uAf/+XBf3X/77ooMHWW6LB9txlGjzfoziyL8N+lJdFaTDO77//ZUn/46JkoUygPHfJQnqPwgT+GPZT35NiIczvv/6fRn/1qf3iRdLF8osXSbfXX7xIhvM3L9Ll37xIl3/zIl3+zYv05TcvctffvCjnb15k1N+86NtvXpTzNy/y+NWL8Vcvxl+9GH/1YvzVi8evXjx/9ZL2mxe9/ubF+KsXz1+9RH/z4varF8uvXv5XL+ZfvdyvXsy/erlfvZh/9Qq/erH96rX/6uV+9WL7xajg8lLOtAcZwf5/zmop5UzfPEspulCllHKkL0sp5bmppZT09VlK0Y+glZLTl0cppU3rSz2Tt+YH1kopOX2zlFIWTUspR/rzUUr5m1ItR9qC4+UhpKPoutRypBCE10oI6Sj6nLQzbUF4qYQt5bJo9Uxb4LVhS2ed1l81b6ZYh9NKSiEIr3ZhS7ksUzn24Hhl2FLRvw9pSTGwUwnp1NUoRwzsUkI669NR8x7YoduOtlbt2IR3y5brtADUJIbyQOqZgmOnbktlcfTcPW92Mevff9qxOXbv4qmLoOce2LmLuT4VekbHnrejrZHmTdirP+q0AE1iZh+DnikIuw+prUo9PDv1h/6Npx0b7YajTq8lT6M+tdWpMRjMxjRvNOj2Np4zdLqVTjRv7NwfOiugBit+AOfuaVbiOZQcOt3aPXp4dh3LCmkKBnd9NfSMQush68TOKDTt9roykTYPQ5o3mnWpjuVkv6WHFoUWY5kVEI3QWD02WpdYhpHYrdQbWmT/Pi9Poc3wXmjeOEaJbU4lCgfo87IcNCpmWhTa3spIfEfbfdnTrMuzQjTSDLXDc4zu0DFIP0yXlUCbvqxNEyNs74TmjSMNZTo1OY5S9rokmWaNZM8BujwOdhxu0uxo2uuksNnIVurhOdJYR8COw0Ul0O5WF6YJrZY34owcrstTKRvHGtt6ZJp1FvRwHKTL8+E9WWg9zkrFRDKhh+dwY52Ju6RGmpZjWZrQbH0d2i4ccijTyI7jDWUxMu2e/WkSDtTlhciO9sOskE1sBs6NY451HrwiCa1vuibqaDbiXdDsOe6tzkAPxzGHshJN7GR0nx0HG8pk2mUtcITzgrMQequ747AlzaP8qDgO0LUVUU+zEa9CjcKhSxrfIRx3rMvQhGYP9F4cB7zrVMpFunOM+7wOC9LXuXHsrswi/0AjxyjneqinWa9vwhk4ft/Glh3HnnQNmtBsROd145jlnEm+pjgO8pxXtcCO9HAc/65zSN87hcPMq6GeZr3iNdDsOMdjYMVz+HKuQBWajej8EA476jzSJTuHqfOCt6C91CicomtTCN/RjSPNixFp1iveAk3CaW46KI2cYqjTU0+zEX3XwJG7No39guo5TI+JJQuljxI5z2MG7hvFcaznUkSalYqXoEZO1bUhZeEk5Zicepr12tchHLvkWYSfncJx7jM7B1UCpxp1fPwqcbTSFiLSrDS8AzVytnKOpwZOdNOZqadZr+hZN44/TurgSM+ZtSGVwNl6HV/5gwaOV3QZdpqVhlegRs44j+YUTlXKxALNekXPzXGGm06BP4kcqs4MAyqBE5Y2vPyX5jjisAqZdgveAI2c9DEUjZzuMa1Is9LQc+YkvU5HA4fqsFjpnhI4Z2mjSwCycMxpDTLtZrwAmoTTjgNpnhOOOqdIs9LQc+Q0vc6gfUc9xxrn5sdSN05b2uACkDjstgKZdjNegCyceR5GFk7Z64wizUpDx7pxol4nUL6hnoPNcwsj0ciZSxubQ+S4/QIU2k14/tRz8nkQO2ft2nwO2j3RsXpO1ev48lfqOdr6KWTh3KUNjZ4jT9NrYifiBdg4/TIC3TjvMJ1Muxkdq+dk/fjSF+o5WocPQYWz9zq0sUudXBOajXgDOH9p9tRz5rPJtJvRcRNONw5v/5N6DjdOzo/j5PzDsjHOrQnNbvh7AL1aU8/PKdNuQsdNOOE0uvCnjePNk+M4ygIwLRvrzNTRrNd3YFsARmPNcephLo12IzpW4ZTPKUQOuC7XeZXKArAsW5yYepr1inegrgBPU004dalTaWInomP1nLPUsfEvBwfsMLdqoVyFtAKiq8Y6LfU06xUvAeIKiBpSx7mfmEkTmt3QsXrO2o+vcMRxcmUkKgvAbdnirNTTrDS8BlUWgNGOes59x0ya0KzXniLnncbWUGVIx+TSSJBXgGXVWCcVaVYa3gOkFWCxop5z95iJepr1io53zrwNrajnkNvkNgt6HdwKOF21NKdIs9LwJqisgLeyce5SZ6KeZp2i48yp+6HlyCELJicWcGNeAaZVc1OKtHviVUBaAWYbOyd/YiLqaVYaOm4yN6aReY55m1yjQbkDYQVEF43nhCLtZjwIR+k8jgluBZyJzMnvmImnWWnoWD0nL3Vgoz4mt1sIt5QVYFy1OJ9MuxlPwgy7yCvAbKDJ5DxmEmlWGnreOf1tudrcVCxstyCsAOuiUWeTaXfH+wC/Aq4/9Zy71JlE2s3o+eQClsUSzC3RYrqnLsG+ankymXYj3oiyAszdRU7+xEQi7Wb0rLICYbG2uamYyPcgroDoosW5nLQb8UogrIDv7eTkd0wk0W5G1xuXsKzVMbedJstNdQV4LJpMpYmdgJeirABbXyqT85hIpt0dXReuYVirNrVCm7g7rYBbNJaJNKFZr28F4grEvjbOXdpEMu1GdK1uEViWCjOrYsPfprIALIuW5tGEZr3itagrINrTyclnzCPTbkTfiasYVirMTD1t7rchrUBctDANFZp1ivcC+wIwd6RuchHzaLQb0HeVMfgQgrfGulBpYs3TaL4PbgFE14yzUE+z0vBmqCzA1lHi3L3Oo4kdr51FWg/pbPhaS969nbhQZV6n0GrtIC8A86KVOainWWl4NZB6cyGmlMpfU0p7CCOgdlM5d2mYRhOa9Yq+G01LPHGl5s2I6DphVrrTrEOPrjcf9pSOUko5U0oxuBFsi3ZMQT3NSsPLodJPSGfDlfXcvbWzmzgOH9NZKr5s5dhDDxnTaEKzoug8WHIZ19ddLDAvU5iUJqHdvYvSj9tSqbiy5OiMyaJtU9hoN+PtQO4jHA23ag6mYi+FYwyp4Np2bDdFTEM9zUpD54V2Xca9dbPglylNqSah5bMLhC4k5opb2+4s8ZxN+KM9P4NIuxnvB9xtErOiwxoNuV7CCEJW3Kl5u8HrNNTTrDT0HsxIwv1Z+mNdpTKfdnjaFvRZ7nN7Q49nMLTPw8Xc8M1ybKY4gUi7GW/IedOW0W0NZlj7KDQvseJ+PdxF0jAL9bTb0Huj1VDRY5P+jun5mErBN1spOcVwAaZSS9qE5mMniPfI3tDtKWb8JFyq+LlmZ6gML9JuxCuCcIM/FF0fZnIfwZokRaclXJIxDU+7Gd1HKwmdNunOT82ngstbjv5bYTwxXbyH4DjI0ku9YzvRtW5WqDNwGVcnO+foMu1GvCTlKokN3TcxErtoNB4rOi7hZxHTiLSb0X2l0Yxuz+5Yp+WPirv1jO6LNp7xO3Qbr3KHovvdyjk+OXBjEytpcJl2I94ShEtcVlhsYsN1EW25gs5L+IHXaUTazeg/GSnoeO/umJPsFZ3WYyNDxnod/ahcshWYzEbS8DbFrc1KHFumXY/3pF6wFVhtNqgdVJqOiv5P9x1pmEWk3QiDYiOjZ3W9bTNyWTHWJdF+kH4me4XVaCMMTjLuPoyEoZ206/VFQfyB7BWGDxulg2Qqw6Smb2TMItFuhMGTJg/0XXrjfFzGcFckomOVH7isMBxMyNh8xf3ehhtZEzte8aZU+Y4khe1gInXgDEmB1eb/FDGLTLsRFjcTG3oPvZXJyIEBr0jtCflb4YTtaoI6sogeiw0OrAnNiuJVQfrKZZhvJuJ9J+1Kg+H0F6+zyLTrYVFpUbS70luaS1R8RBF9u69Cgflkogwso0+3Fk1oVhpeFpU/uIwRRgvhvmhHGky3GA7FJDLtejWRTWT07zoLM3EFY16Q2tn5p9gwQBULx7CkoNPDRhmVCs1Kw9uC5kiXMcZiQe4TM9IwXyuNdr3C5GbBw+DRmUwkKj6khN4TyVgxxmhhH5U09FpXQj3tNrwvQGsYpjPA206aPbFKTexIhUmlxWKhdsY6jYxhL4dod9BSMcpmIQzKV/Tr10E97Wa8MuNsZbNQ7opmElapCc1Kg83TgoNJ39k5CWn4mE5MvBQLfkxe0fFu4hySetrNeN9qKSntIXiavc1ZCVilTWhWGoxGC9nG3lmagzR8TBtmW8qZUgzB0eyQnKLnbCINaaPdA++ZljPtIXCEx02NRqUuk+UCq86AqI3cWZiCV3xMorOo5UgxeI5wSAFdt1WwHPGGaTlS8BxpuumwcuDzybBaaTDCZuvMz8ApPqcTw28l7cFxpGV6WL6Il0vLEQMHfNdmxOHzyTCbLZxG0BknIA2f046R1zNtngNeAL94ES+Wnik4jjrcJEbK53PA7m5AYFU6q8OThs/JY9Qt74HDXoCwdl7fqnZsjkO/qdFmwMcTYTgYcMmq66wM78TnJDoiLSkIh37Mb186r3ij2rEJh39TNpI/ngjLXNY8uoTPSRpGq+fuOf40v7RyXvE61bwJp3jTbsPh04mw3NYlDW7DB5Ux1pYC5/joSMXL1JLnPO8JNvZPx6up80Nz+kFljPSMwmkuwLFu0vAqtd1xqveIjfbheIXptC5hbAWfU8Y4zyic6QKUZZOGF6kmx9neojTp8Nl4he3tM0v4nDJGWaJwsg9OwXuUAyd8S7Gxfzg7jIePzONzyhhjTY7z3R8bh7eoJuGUbzltnB8OizF+ZO1zyhhiiZxyeGyY3qEaOetbkg39dJx+KBzYjk9JGkaYAyf94LC8QGXjvIfj8OlwN9U+MdFPyTcMMDtO+8lx+vbUyJnfEkyEz4enpfKJZXxIUWE/O078yeH+7ujOuQ8nfUCij0rAZyQH7JfAqT86PN+cQ/hZHB8QN0P5AyufkW8wr5GTf3ZEX5saOP1baLJ8QjzspM8r4BOSBPun8M3h9tYcwldG6nNSP6GtwrxunP/Dw+MxOUrncWwauILDqR8Rw2MS8fm4AvtF+PpIfUoKOk9Da46fCD4jpqekfj4ZAzy4hE8Pw/uShS8O28fhB4XPpwwg8hVielsyV/Gp8R9HeGq8OfV8idjelciXh/vfBJiNqedr5F+VyNeH5W8CoqbU8z3i/qIcfIGcfhb7Y8NkST3fJJbXJPMN4vZZpOdGqqGN75LTl6TxkykfFM+P4nhuGO3sfJm4vSMqb5HoJ1EeHBYrJ18nnq/IxmVyJs5PiuGTaE9OMFLlhRJ9QQ6uUzCRPioe3ZWFwSd2lJ87IzxtBL5QDO+HysBckAWIn5W0j8F9ZAU/P604E5kD9/654/F6RI7WhS2lXIoCQFiA8FnRfwzhIUAwwmRAZTg+xJRKKQBQHjxpL0flOH1IR6n44WiSCX5YTJ3puuxPQbEi2l/iOENMZ1F8/8mjfznCGELKDdcuQfuw2PrCuuSnAMEIY3cqQ3BbKhWXPnpMr0aleRePhhtHc9o4Pi2nfbllaY9Bs8LaW6J5v58V1z97bG9GNBaOhptHU2xsnxb3vsKqCB4DRCuhMxVbErPi3ofP6XuhtByy4v7RqA1+XDy72lflfBCqFZa+Mg1LPHH/w8f9vTjsSKrocjQwcn5coj0lE1sa/lHxICBacX15Oz4renz6eL4W3orLik6HE2xsHxe3noqJiFX8lFSMMPdUaTUUdPr4ib4UlTYlKbodTrRB/biYO1IT8rAhWRHt6DDiCrp9/Li9FIcNX9HxcA4j6fOS2g/EAs+HTcUIU0fexq54T5jfic1ERNfDKUZEPy6GjoKJ+LAhWWHtRmlRTvT8Akh9JWgxY2owwvR58egnmRB92NRZid2cFqThXWF4I4qFiMl5I6IrF8UGWzfFBI+HDdkKSy+7hYbnzgcbPF6Iw4DH7HYj3Bcu4jTiu4EN97TBWQm9BAMJz51XFRts70M0UKZ3WmFZtghgs8G9m2CC+WnLVpg7Yf8Oz51X4DTi34fQX8D01IzTRYsAoGKDpZdkQ/RhQ7Di+qgG8nPnFQA2G9xfB/af5wdvhdsYyrGVuUT88TTitJNmg/vTVqwwdVEM6GPnFX9VscHy+ugCJDNMA9CNJPeZRHy52WDsBGKD7WFDsCLaw9HfhqfOK/6cjTh9F0p/HgvQ7DCbO4V/POYR8bWKDZ6dRCNeH7ZihbGH1F966rzi62CD8eUJ/TUZD5wdZlu68Uups0j47mlEtI/TCOPDhmiFrYO9v7O/9Ax5xTer2OD57qTuEk3ethtitnQIvxkmkfH9zQZDHxAjTA9bNRM6CP2V3jTwEfKKbx9GRN+EY3TNc0jNEg8zxfP75xQyfqhig0cfuxXmZw3RCsv0TuEjtCl+GGwwvAmpv9BXEo4J3hKjmqgbfyo6gYwfn0akdtHM8BhB2cKhD0k14wZ0dlU3Gn0cIn5cxQaPN8f3VDzN3neYom/91cgLt/FlXBhs0HcBb4bRXAkk6R8SJCs8xpN6OoTPUMSFhxGpLw5rNxpp+D61RUmd1chry+gyrqxig6mLbIe+msqOf84PiYoV0eH4foqn3Ych4tJgg/7NSZ1oEo4M0RbpS0cl8mqnY8u49jDC1gPEDuUwo4fj16LPCJIVpuGwdlIjLT8LEddWscH04kjtIjva7qBZI0PpJAfeuA8t4+pgxGkPyRAZiokahd9OD4mKFdbhhC5qpO1HIeLqwwjbW5AN0Ot92dF6BwjmSJ/1thaF95aBZVxexQb3HlQskVvtTXPgT0WfEWQz23AY76u78DGKuD4YcfoSFAt07R5NjvZ7KAMguWW9Ts8ovN0NS07ceBhh6QDJFhlKT2cUXhgfEjgrLPdsFrjpPS3S/oMQcWMVG9xfHDLW687IIfaAMASSPh5Ff1JLio59pkFJw63BiGgHKsZId9Qu9IzCi+tDks2Ee5IJStbLNHuO8DmIuPUwwvIOVCPklvWCmjfhILsoo/izD2FLKcUQgrDrNqaEe6vY4NYBkjmSPrWbSgq8cXtI4K0wj4eUWK4oyXOQj4HHzcGI6CsAMyR9TGcpCmgpJe1BONAuEIZi188IhxHmDlQG8NeQznZFKyl63l0ekmLG6R2nlb+G/SilAKilnCl6DvQxCHdVscHtHfCGht5HWQIeM0IwIvU+HIP4o4QQ05dbCMI+w0OCYIXpjmJp5E8JDiM8X4Ft3RCXQOqMqthg6ABuIFbPh6SYEb0Brw6CEalvQFq4KivAMCMcRnh0UKbnHhIEK4x3+FenGWF4A8rCIS0BjxkhGGG7D9vsmB+SaobthvjqIBnh8QLoysEvgeiMqhjxHajMTvQZQTQTbsjvDrwRtucPfuXaEnCbEQ4jTPfhnB3TQ1LNsFxXX55mxb8AaeWQloDnjBCMsNyHbXaizwh2M+46uHcHyQjT89eWDn4JRGdUrTi9T2VyjA+JihUe1+0vD7wRlscPbumarAD3GSEZYbwPZXaszwiSGdHL2tvTrDh9/PalQ14ClhnBG+F5H9LstodExQr3y+BeHiQjjI9fXTvEJXA6o2ZF9D5sk2N5RnCYYb3seHvgjfB8+hDWDn4FuM8IyQi3DtRPLjwkcGa2y/T1aVZEn76yeOpXgG1G8EZ43Icmc+P5kGQzLFchvj1IRrg9ffBrhyYr4KfUrEi9D21y7iGBM+Mvq68PvBEeT9+5eGiyAMwzQjJC3wHy3JgfktMM81WIr0+zIvXhQ1g8NFmANCV4I0wdIM9N9BlBMOP0qvr6IBmhf/rK6qHJ/PKcmhW2DpCnxvSQFDNMV2F/feCNMD18iKuHJrPzOickK147QJ6a6DOCYEbqVSqvT7PC9vCprB6azM0rJgVvhHsPyDNjfEiaGcarcL4+SFa8Pns4lw/NzSzixuE1Kyw9IMvE5CFBNMN2FbbXR50R7g8ftuWD+nllTAzJimgPaPJ6VDvhMpW3B8UKy8OnbvmgcVKuYWrwRrh1geqnFZ8SRDM8r0J5fbBbEX320GRocs4AOKa0KSbXrPDsArpNyutjomLGXYY0tpAeMHVGuD18yCPbFG4KaG46cuLuCSBZkdoFcMxIEjr++JDM8LgMcWByoDxgKFZ4PnzIw5ITwDYH6DaZULEAcEYYOkFz09kqnhQVM6KXqR9WqACeMOxWpD58iIOKCgBpEkCWiUhGh1MoVnh0Ao1zcQV9f35IZrhfBvVjkgN/9U+YOiMMTx/iiFzBH8s0ULdpRMUiYLcirRPglHlIRu8PAJwZ1sugfkSb4o/xCUOxwuPpwz4cSfhS5wGcbgq+oM85qDNC3w10n4QkxQOT7WzXQf1wXMGXxyOG3Yq0pw95MFHxTTcRaBqfy+h1DihWmLoBSpiAJIXBJwDODMt10G0scuCb5RlTZ4T+8UORgYSGb28zAWocmyT0OwnsVlj6AbIbnCSFyUcg2/E3APtIkuLbzxiKFabHD9WPIhT8MM0FKGFckhTLoc6K046AJANzGVYfAQQzzHfglFHEih/6Zwy7FZbHD0hDcCd+XGYDlDAmlxVdzwLFCveuoEkGtRXYfQaKHdE7UMMQYsWP40OmzorT5w/FmwsZF+p8gBrHE070Pg3sVli6ApDdeFyqsPwMIJjhcQtwiLlYceHxkKFYYXoBgCSmQsG1bkKAJjcS2Sv6n4c6K6k34NzGEk8YfwiKnfMm1GhKYsWl5SnDbiW8AtDdTqy4epsSgHMbRTxh8rCQbaBMA6jJjWLLCvPOgMxks1BtIJopdwElmHFJcXVP8SNRC5sRdQP5n5VqBgS9FwMOFusuFtyhuD53FMcCaN7MSTwVRqv0J2oEu5FqAUCLYk62rBjhbmCfSTYQYLSOCyjBxHbixtBRuS8YyJ3BGSi3IRjIRnAaSZfg35bkvy5Clt5c6w5ZenPNBKCH60xiw717N0FHA0DzJnb8XmD5lN6kwKpuFiTDbtudIb8XjFK37jadCfbuvFpBFhs7+qxROvNHxa0ausm4X0N3O3pvrjfJuF99dwlms1jYce3//Nt6/Ot/4nItfTdY1NJ3g+ESpRu3n7hfS58Voy4pGHAxV5gvncNyLf3DeM2bGPAxVwy1lr4rJqul7wbLxaKiW81bP/6ouL+VPhVdttK3wmArfaPPVvpWGNbSv+Ly//mv1fxffMrn7u+T7WhY5JI2142EdFY8ny1H34+EdCpeWs2b3OdiVvwfVD1TkKsk7LlhsbUce3D3hJjOiie15bSFe1zYj6J4e1uO4TK3pVPxf1m1nCnF8M2YUilYeS3lSCmGb8eUjlLw3JaSU9rD91NKZ6l4k2vJKW3hmykdpeEf///j/3/ODg==;" parent="1" vertex="1">
          <mxGeometry x="550" y="404.46" width="96" height="11.07" as="geometry" />
        </mxCell>
        <mxCell id="ailHdaVeLgmk8TJC5OJ2-21" value="" style="endArrow=classic;html=1;rounded=0;entryX=1;entryY=0.5;entryDx=0;entryDy=0;exitX=0;exitY=1;exitDx=0;exitDy=0;" parent="1" source="ailHdaVeLgmk8TJC5OJ2-20" target="ailHdaVeLgmk8TJC5OJ2-12" edge="1">
          <mxGeometry relative="1" as="geometry">
            <mxPoint x="510" y="100" as="sourcePoint" />
            <mxPoint x="570" y="140" as="targetPoint" />
          </mxGeometry>
        </mxCell>
        <mxCell id="ailHdaVeLgmk8TJC5OJ2-22" value="extend" style="edgeLabel;resizable=0;html=1;;align=center;verticalAlign=middle;" parent="ailHdaVeLgmk8TJC5OJ2-21" connectable="0" vertex="1">
          <mxGeometry relative="1" as="geometry" />
        </mxCell>
        <mxCell id="ailHdaVeLgmk8TJC5OJ2-23" value="" style="endArrow=classic;html=1;rounded=0;entryX=1;entryY=0;entryDx=0;entryDy=0;exitX=0;exitY=0.5;exitDx=0;exitDy=0;" parent="1" source="ailHdaVeLgmk8TJC5OJ2-19" target="ailHdaVeLgmk8TJC5OJ2-12" edge="1">
          <mxGeometry relative="1" as="geometry">
            <mxPoint x="512" y="83.53" as="sourcePoint" />
            <mxPoint x="390" y="127.53" as="targetPoint" />
          </mxGeometry>
        </mxCell>
        <mxCell id="ailHdaVeLgmk8TJC5OJ2-24" value="extend" style="edgeLabel;resizable=0;html=1;;align=center;verticalAlign=middle;" parent="ailHdaVeLgmk8TJC5OJ2-23" connectable="0" vertex="1">
          <mxGeometry relative="1" as="geometry" />
        </mxCell>
        <mxCell id="ailHdaVeLgmk8TJC5OJ2-25" value="Get Projects&lt;div&gt;Statistic&lt;br&gt;(count of tasks, SP, velocity etc)&lt;/div&gt;" style="ellipse;whiteSpace=wrap;html=1;" parent="1" vertex="1">
          <mxGeometry x="270" y="120" width="140" height="80" as="geometry" />
        </mxCell>
        <mxCell id="ailHdaVeLgmk8TJC5OJ2-26" value="" style="endArrow=classic;html=1;rounded=0;entryX=0;entryY=1;entryDx=0;entryDy=0;exitX=1;exitY=0.3333333333333333;exitDx=0;exitDy=0;exitPerimeter=0;" parent="1" source="ailHdaVeLgmk8TJC5OJ2-4" target="ailHdaVeLgmk8TJC5OJ2-25" edge="1">
          <mxGeometry width="50" height="50" relative="1" as="geometry">
            <mxPoint x="200" y="275" as="sourcePoint" />
            <mxPoint x="314" y="103" as="targetPoint" />
          </mxGeometry>
        </mxCell>
        <mxCell id="ailHdaVeLgmk8TJC5OJ2-27" value="Set Projects&lt;div&gt;Statistic&lt;br&gt;(count of tasks, SP, velocity etc)&lt;/div&gt;" style="ellipse;whiteSpace=wrap;html=1;" parent="1" vertex="1">
          <mxGeometry x="265" y="260" width="140" height="80" as="geometry" />
        </mxCell>
        <mxCell id="ailHdaVeLgmk8TJC5OJ2-28" value="" style="endArrow=classic;html=1;rounded=0;entryX=0;entryY=0.5;entryDx=0;entryDy=0;exitX=1;exitY=0.3333333333333333;exitDx=0;exitDy=0;exitPerimeter=0;" parent="1" target="ailHdaVeLgmk8TJC5OJ2-27" edge="1">
          <mxGeometry width="50" height="50" relative="1" as="geometry">
            <mxPoint x="200" y="280" as="sourcePoint" />
            <mxPoint x="301" y="198" as="targetPoint" />
          </mxGeometry>
        </mxCell>
        <mxCell id="ailHdaVeLgmk8TJC5OJ2-29" value="Manage Stats&lt;br&gt;Presentation" style="ellipse;whiteSpace=wrap;html=1;" parent="1" vertex="1">
          <mxGeometry x="285" y="420" width="100" height="50" as="geometry" />
        </mxCell>
        <mxCell id="ailHdaVeLgmk8TJC5OJ2-31" value="" style="endArrow=classic;html=1;rounded=0;entryX=0;entryY=0;entryDx=0;entryDy=0;exitX=1;exitY=1;exitDx=0;exitDy=0;exitPerimeter=0;" parent="1" source="ailHdaVeLgmk8TJC5OJ2-4" target="ailHdaVeLgmk8TJC5OJ2-29" edge="1">
          <mxGeometry width="50" height="50" relative="1" as="geometry">
            <mxPoint x="190" y="360" as="sourcePoint" />
            <mxPoint x="285" y="442" as="targetPoint" />
          </mxGeometry>
        </mxCell>
        <mxCell id="ailHdaVeLgmk8TJC5OJ2-32" value="" style="shape=image;verticalLabelPosition=bottom;labelBackgroundColor=default;verticalAlign=top;aspect=fixed;imageAspect=0;image=https://docs.taiga.io/imgs/logo.png;" parent="1" vertex="1">
          <mxGeometry x="560" y="231.59" width="70" height="28.41" as="geometry" />
        </mxCell>
        <mxCell id="ailHdaVeLgmk8TJC5OJ2-33" value="" style="endArrow=classic;html=1;rounded=0;entryX=0;entryY=0.5;entryDx=0;entryDy=0;exitX=1;exitY=0.5;exitDx=0;exitDy=0;" parent="1" source="ailHdaVeLgmk8TJC5OJ2-27" target="ailHdaVeLgmk8TJC5OJ2-32" edge="1">
          <mxGeometry relative="1" as="geometry">
            <mxPoint x="569" y="298.5" as="sourcePoint" />
            <mxPoint x="390" y="301.5" as="targetPoint" />
          </mxGeometry>
        </mxCell>
        <mxCell id="ailHdaVeLgmk8TJC5OJ2-34" value="include" style="edgeLabel;resizable=0;html=1;;align=center;verticalAlign=middle;" parent="ailHdaVeLgmk8TJC5OJ2-33" connectable="0" vertex="1">
          <mxGeometry relative="1" as="geometry" />
        </mxCell>
      </root>
    </mxGraphModel>
  </diagram>
</mxfile>
